<svg id="Layer_1" data-name="Layer 1" xmlns="http://www.w3.org/2000/svg" xmlns:xlink="http://www.w3.org/1999/xlink" viewBox="0 0 1438.28 528.05"><defs><style>.cls-1{fill:url(#linear-gradient);}.cls-2{fill:url(#linear-gradient-2);}.cls-3{fill:#1c1c24;}</style><linearGradient id="linear-gradient" x1="102.93" y1="331.33" x2="373.78" y2="249.79" gradientUnits="userSpaceOnUse"><stop offset="0.24" stop-color="#ff9b57"/><stop offset="0.36" stop-color="#fb954f"/><stop offset="0.55" stop-color="#f1843a"/><stop offset="0.76" stop-color="#e26a1a"/></linearGradient><linearGradient id="linear-gradient-2" x1="52.88" y1="277.04" x2="368.3" y2="182.09" gradientUnits="userSpaceOnUse"><stop offset="0.24" stop-color="#1b64ce"/><stop offset="0.31" stop-color="#2366d0"/><stop offset="0.42" stop-color="#386dd7"/><stop offset="0.56" stop-color="#5b77e1"/><stop offset="0.71" stop-color="#8b85ef"/><stop offset="0.76" stop-color="#9a8af4"/></linearGradient></defs><path class="cls-1" d="M283.78,234.34h0a85.78,85.78,0,0,1-71.64-38.61L175,139.35a29.12,29.12,0,0,0-23.86-13.09h0a32.17,32.17,0,0,0-32.65,32.16V369a94.86,94.86,0,0,0,94.85,94.86h70.42A114.78,114.78,0,0,0,398.56,349.12h0A114.78,114.78,0,0,0,283.78,234.34Z"/><path class="cls-2" d="M252.31,309.84h0a85.77,85.77,0,0,0-71.64,38.6l-37.12,56.39a29.12,29.12,0,0,1-23.86,13.09h0A32.17,32.17,0,0,1,87,385.76V175.13a94.86,94.86,0,0,1,94.85-94.85h70.42A114.78,114.78,0,0,1,367.09,195.06h0A114.78,114.78,0,0,1,252.31,309.84Z"/><path class="cls-3" d="M505.5,291.59v48.19H469.86V193h66q25.74,0,40.48,11.77t14.74,36q0,24.42-14.74,37.63t-40.48,13.2Zm0-27.5h26a27.66,27.66,0,0,0,9.79-1.55,15.43,15.43,0,0,0,6.49-4.4,19.28,19.28,0,0,0,3.63-6.6,27.26,27.26,0,0,0,1.21-8.36,32.29,32.29,0,0,0-1.21-9.13,21.45,21.45,0,0,0-3.63-7.15,14.72,14.72,0,0,0-6.49-4.62,27.68,27.68,0,0,0-9.79-1.54h-26Z"/><path class="cls-3" d="M649,343.08A91.34,91.34,0,0,1,630,341.21,47.6,47.6,0,0,1,614.41,335a29.26,29.26,0,0,1-10.56-11.55q-3.74-7.26-3.74-18.48a36.47,36.47,0,0,1,4.29-18,28.39,28.39,0,0,1,13.1-11.88q8.79-4.18,22.44-4.18a66.49,66.49,0,0,1,14.3,1.54,59.23,59.23,0,0,1,12.65,4.18,34.71,34.71,0,0,1,8.91,5.72l1.32,15.84A38.72,38.72,0,0,0,666.56,294a54.17,54.17,0,0,0-13.2-1.54q-10.79,0-15.73,3.19t-5,10a12.13,12.13,0,0,0,2.42,7.59,15.72,15.72,0,0,0,6.49,4.95,21,21,0,0,0,8.47,1.76q11.22,0,15.73-1.54a6,6,0,0,0,4.51-6.16V271.35q0-10.12-6.49-14.64t-18.15-4.51a60.56,60.56,0,0,0-19.8,3.41q-9.9,3.42-15.63,8.26V234.82q5.28-3.51,17.5-6.6a110.29,110.29,0,0,1,26.95-3.08,76.62,76.62,0,0,1,11.66,1,74.54,74.54,0,0,1,12.77,3.19,38.27,38.27,0,0,1,11.76,6.6,31.49,31.49,0,0,1,8.59,11.22q3.18,6.83,3.19,16.95v52.58q0,9.46-6.38,15.29t-18.38,8.48A136.54,136.54,0,0,1,649,343.08Z"/><path class="cls-3" d="M740.49,382.9a52.92,52.92,0,0,1-10.78-1.1,40.8,40.8,0,0,1-9-2.86V352.32a37.86,37.86,0,0,0,6.6,1.87,36.85,36.85,0,0,0,6.38.55,17.82,17.82,0,0,0,9.57-2.53q4.07-2.54,6.71-8.47t4.18-16.51l.66,18.71-47.52-117.5h37.4L770,306.55h-3.31l25.09-78.11H827l-43.78,113.1q-5.94,15.39-12.87,24.42t-14.42,13A32.54,32.54,0,0,1,740.49,382.9Z"/><path class="cls-3" d="M842.14,339.78V193h48.63q18.91,0,29.59,5.39t15,14.41a45,45,0,0,1,4.29,19.58q0,9.47-2.86,14.85a27,27,0,0,1-7,8.69,87.52,87.52,0,0,0-7.7,6.82l-1.77-2.86a53.24,53.24,0,0,1,12.33,6.5,38,38,0,0,1,11.22,12.32q4.62,7.81,4.62,19.47,0,14.74-6.38,23.87t-18.37,13.42q-12,4.31-28.5,4.3ZM858,256.6h36.31a67,67,0,0,0,13.86-1.43,20.06,20.06,0,0,0,11.22-6.38q4.41-4.95,4.41-15.29,0-15-8.37-20.13t-23.1-5.17H858ZM858,325h38.51a75.72,75.72,0,0,0,17.71-2,24.18,24.18,0,0,0,13.32-8q5.06-6,5.06-17.71,0-8.81-3.3-14a20.39,20.39,0,0,0-8.7-7.7,38.19,38.19,0,0,0-11.88-3.3,107.83,107.83,0,0,0-12.87-.77H858Z"/><path class="cls-3" d="M1015.53,343.08q-25.75,0-38.18-15.3t-12.43-42.57q0-28.6,13.09-42.91t37.08-14.3q17.8,0,29,7.15a42,42,0,0,1,16.5,20q5.28,12.87,5.28,30,0,27.06-13.09,42.46T1015.53,343.08Zm-.22-14.53q13.2,0,20.79-5.83a31.38,31.38,0,0,0,10.78-15.62,70.58,70.58,0,0,0,3.19-21.89,69.36,69.36,0,0,0-3.3-22.56,28.81,28.81,0,0,0-11-14.85q-7.71-5.28-20.46-5.28-13.21,0-20.69,5.72A31.11,31.11,0,0,0,984,263.64a68.62,68.62,0,0,0-3.19,21.57q0,19.37,7.7,31.35T1015.31,328.55Z"/><path class="cls-3" d="M1117.84,343.08a70.21,70.21,0,0,1-19.92-2.42,100.39,100.39,0,0,1-16.61-6.82V317.11q6.82,3.75,12.1,6.38a46.09,46.09,0,0,0,10.78,3.85,58.53,58.53,0,0,0,12.55,1.21q11,0,17.93-4.84t6.93-12.54q0-6.15-3.41-9.46a27.72,27.72,0,0,0-8.69-5.5c-3.52-1.46-7.19-3-11-4.62q-6.39-1.75-12.87-3.85a52,52,0,0,1-11.89-5.5,27,27,0,0,1-8.69-8.8c-2.2-3.6-3.3-8.25-3.3-14a28.31,28.31,0,0,1,3.41-14.3,30.11,30.11,0,0,1,8.91-9.79,38,38,0,0,1,12.33-5.61A54.49,54.49,0,0,1,1120,228a48.37,48.37,0,0,1,16.94,2.64q7,2.64,14.52,5.94v15.84q-8.37-4.17-15-7a39.21,39.21,0,0,0-15.62-2.86,35.25,35.25,0,0,0-16.18,3.63q-7.14,3.63-7.15,11.11,0,6.17,3.63,9.8a26.23,26.23,0,0,0,9.58,5.83,131.67,131.67,0,0,0,12.76,4q5.49,1.75,11.44,3.85a48.37,48.37,0,0,1,11,5.5,26.76,26.76,0,0,1,8.25,8.91q3.2,5.5,3.19,14.08,0,11.67-5.94,19.25a34.56,34.56,0,0,1-15.07,11.12A51.47,51.47,0,0,1,1117.84,343.08Z"/><path class="cls-3" d="M1209.37,343.08q-11.88,0-19.91-2.42a100.13,100.13,0,0,1-16.62-6.82V317.11q6.83,3.75,12.11,6.38a46,46,0,0,0,10.77,3.85,58.53,58.53,0,0,0,12.55,1.21q11,0,17.93-4.84t6.93-12.54q0-6.15-3.41-9.46a27.61,27.61,0,0,0-8.69-5.5c-3.52-1.46-7.19-3-11-4.62q-6.39-1.75-12.87-3.85a51.68,51.68,0,0,1-11.88-5.5,26.9,26.9,0,0,1-8.7-8.8c-2.2-3.6-3.3-8.25-3.3-14a28.31,28.31,0,0,1,3.41-14.3,30,30,0,0,1,8.92-9.79,37.89,37.89,0,0,1,12.32-5.61,54.49,54.49,0,0,1,13.64-1.76,48.37,48.37,0,0,1,16.94,2.64q7,2.64,14.52,5.94v15.84q-8.35-4.17-15-7a39.21,39.21,0,0,0-15.62-2.86,35.25,35.25,0,0,0-16.18,3.63q-7.14,3.63-7.14,11.11,0,6.17,3.62,9.8a26.23,26.23,0,0,0,9.58,5.83,131.67,131.67,0,0,0,12.76,4q5.49,1.75,11.44,3.85a48.17,48.17,0,0,1,11,5.5,26.65,26.65,0,0,1,8.25,8.91q3.2,5.5,3.19,14.08,0,11.67-5.94,19.25A34.5,34.5,0,0,1,1228,339.56,51.47,51.47,0,0,1,1209.37,343.08Z"/><path class="cls-3" d="M1277.85,216.53V187.06h-11v-4.77h27.77v4.77H1283.5v29.47Z"/><path class="cls-3" d="M1297.72,216.53V182.29h5.9l12.27,18.12-3.33.41,12.88-18.53h5.8v34.24h-5.65V187.11l1.6,1.13-13,18-12.43-17.87,1.49-1.59v29.78Z"/></svg>