<?xml version="1.0" standalone="no"?>
<!DOCTYPE svg PUBLIC "-//W3C//DTD SVG 20010904//EN"
 "http://www.w3.org/TR/2001/REC-SVG-20010904/DTD/svg10.dtd">
<svg version="1.0" xmlns="http://www.w3.org/2000/svg"
 width="770.000000pt" height="770.000000pt" viewBox="0 0 770.000000 770.000000"
 preserveAspectRatio="xMidYMid meet">
<metadata>
Created by potrace 1.14, written by Peter Selinger 2001-2017
</metadata>
<g transform="translate(0.000000,770.000000) scale(0.100000,-0.100000)"
fill="#000000" stroke="none">
<path d="M2618 7695 c-2 -2 -57 -5 -123 -8 -116 -6 -183 -15 -269 -38 -23 -6
-49 -13 -60 -15 -20 -4 -81 -22 -106 -31 -8 -3 -23 -8 -32 -9 -38 -8 -218 -85
-287 -123 -41 -23 -75 -41 -77 -41 -7 0 -99 -65 -102 -72 -2 -5 -8 -8 -13 -8
-19 0 -174 -127 -257 -210 -101 -102 -200 -228 -268 -340 -21 -36 -42 -67 -46
-70 -3 -3 -10 -18 -13 -33 -4 -15 -10 -27 -14 -27 -5 0 -34 -55 -36 -70 -1 -3
-13 -30 -27 -60 -25 -55 -86 -225 -93 -261 -2 -10 -6 -23 -9 -28 -20 -31 -34
-241 -41 -601 -3 -140 -5 -257 -6 -260 -5 -19 -3 -37 4 -47 4 -6 4 -14 -1 -17
-5 -3 -10 -835 -11 -1949 l-2 -1944 39 -86 c36 -77 88 -164 117 -193 5 -6 24
-27 41 -46 50 -57 136 -112 239 -153 50 -20 94 -25 205 -25 119 0 189 7 208
22 6 6 12 7 12 2 0 -4 5 -3 12 4 14 14 32 16 23 2 -3 -5 -1 -20 6 -32 24 -45
84 -133 96 -141 7 -4 13 -14 13 -22 0 -7 3 -15 8 -17 4 -1 32 -32 62 -68 82
-98 201 -212 293 -280 45 -34 90 -68 100 -76 9 -8 20 -14 23 -14 3 0 25 -13
48 -28 41 -28 254 -140 269 -141 4 0 24 -8 45 -16 33 -14 155 -57 175 -61 4
-1 9 -3 12 -4 3 -1 8 -3 13 -4 4 -1 30 -7 57 -14 132 -30 295 -35 1205 -36
677 -1 920 4 960 18 8 3 33 7 55 10 22 3 78 14 125 26 47 11 94 23 104 25 23
5 85 24 106 32 8 4 18 7 23 8 4 2 8 3 10 5 1 1 9 3 17 5 80 17 420 187 474
237 11 10 23 18 28 18 9 0 144 99 182 133 13 12 42 37 64 55 59 48 214 208
267 276 86 111 102 133 108 148 3 10 11 18 17 18 5 0 10 5 10 11 0 7 16 37 36
67 51 77 145 262 181 357 17 44 34 89 38 100 14 36 62 203 70 244 2 14 9 47
14 75 29 143 36 225 36 426 0 154 -6 260 -19 325 -2 11 -7 43 -10 70 -4 28
-16 88 -27 135 -12 47 -22 92 -24 100 -6 32 -58 186 -65 195 -5 6 -8 12 -8 15
-1 3 -5 18 -11 33 -6 16 -11 31 -11 33 0 3 -22 49 -48 103 -159 319 -347 554
-645 804 -62 53 -78 62 -100 58 -5 -1 5 18 21 41 32 47 76 131 117 223 14 33
33 72 41 88 8 15 12 27 8 27 -3 0 -2 6 3 13 14 17 73 203 79 247 1 8 6 33 12
55 10 38 16 73 28 155 3 19 7 49 9 65 24 165 23 547 -1 655 -3 14 -8 41 -10
60 -3 19 -10 53 -16 75 -5 22 -12 48 -14 59 -20 107 -147 456 -165 456 -5 0
-9 6 -9 14 0 7 -21 51 -46 97 -157 283 -342 497 -637 735 -9 8 -21 14 -26 14
-5 0 -11 4 -13 8 -3 9 -123 92 -132 92 -3 0 -24 13 -48 28 -24 16 -74 44 -113
63 -38 19 -71 37 -73 42 -2 4 -9 7 -17 7 -7 0 -39 12 -71 26 -57 25 -249 92
-283 99 -9 1 -34 8 -56 14 -22 6 -51 12 -65 15 -14 2 -25 5 -25 6 0 1 -12 3
-26 5 -15 2 -42 6 -60 8 -34 5 -86 13 -164 23 -40 6 -1631 14 -1637 9z"/>
</g>
</svg>
