<!-- <?xml version="1.0" encoding="UTF-8"?> -->
<svg id="Layer_2" data-name="Layer 2" xmlns="http://www.w3.org/2000/svg" xmlns:xlink="http://www.w3.org/1999/xlink" viewBox="0 0 1184.4 384.71">
  <defs>
    <style>
      .cls-1, .cls-2, .cls-3, .cls-4, .cls-5, .cls-6, .cls-7 {
        fill-rule: evenodd;
        stroke-width: 0px;
      }

      .cls-2 {
        fill: url(#linear-gradient-3);
      }

      .cls-3 {
        fill: url(#linear-gradient);
      }

      .cls-4 {
        fill: url(#linear-gradient-2);
      }

      .cls-5 {
        fill: url(#linear-gradient-5);
      }

      .cls-6 {
        fill: url(#linear-gradient-6);
      }

      .cls-7 {
        fill: url(#linear-gradient-4);
      }
    </style>
    <linearGradient id="linear-gradient" x1="1314.67" y1="38.79" x2="746.84" y2="232.83" gradientUnits="userSpaceOnUse">
      <stop offset="0" stop-color="#9dc4ff"/>
      <stop offset=".73" stop-color="#1b64ce"/>
    </linearGradient>
    <linearGradient id="linear-gradient-2" x1="1334.48" y1="96.75" x2="766.65" y2="290.79" xlink:href="#linear-gradient"/>
    <linearGradient id="linear-gradient-3" x1="1345.32" y1="128.46" x2="777.49" y2="322.5" xlink:href="#linear-gradient"/>
    <linearGradient id="linear-gradient-4" x1="1354.88" y1="156.44" x2="787.05" y2="350.49" xlink:href="#linear-gradient"/>
    <linearGradient id="linear-gradient-5" x1="250.17" y1="42.77" x2="-344.71" y2="511.81" gradientTransform="translate(40.78) skewX(-11.83)" gradientUnits="userSpaceOnUse">
      <stop offset="0" stop-color="#9dc4ff"/>
      <stop offset=".09" stop-color="#70a3ee"/>
      <stop offset=".19" stop-color="#4b87e0"/>
      <stop offset=".28" stop-color="#3074d6"/>
      <stop offset=".35" stop-color="#2068d0"/>
      <stop offset=".41" stop-color="#1b64ce"/>
    </linearGradient>
    <linearGradient id="linear-gradient-6" x1="-124.88" y1="418.72" x2="353.08" y2="249.18" gradientTransform="translate(40.78) skewX(-11.83)" gradientUnits="userSpaceOnUse">
      <stop offset="0" stop-color="#ff9b57"/>
      <stop offset=".28" stop-color="#fd9853"/>
      <stop offset=".52" stop-color="#f88f48"/>
      <stop offset=".75" stop-color="#ef8136"/>
      <stop offset=".97" stop-color="#e36c1d"/>
      <stop offset="1" stop-color="#e26a1a"/>
    </linearGradient>
  </defs>
  <g id="Layer_1-2" data-name="Layer 1">
    <g>
      <g>
        <path class="cls-1" d="m533.58,169.33c-.64-14.94-8.93-24.73-25.5-30.09-3.87-1.25-12.6-1.62-45.93-1.96l-41.15-.42-36.21,148.16h37l11.67-47.76,21.38-.55c11.76-.3,23.77-1.09,26.68-1.75,18.9-4.29,34.34-15.63,43.32-31.79,4.79-8.62,9.1-25.32,8.73-33.84Zm-50.21,32.9c-5.34,4.71-10.16,5.74-27,5.77l-15.75.02,10.26-42,15.75.02c17.57.02,21.84,1.19,24.37,6.61,3.73,7.99-.13,22.97-7.63,29.58Z"/>
        <path class="cls-3" d="m865.2,209.48l-5.06-3.89,6.01-4.54c8.37-6.31,12.28-11.77,15.14-21.18,5.29-17.38,1.6-30.51-10.5-37.38-7.8-4.43-16.32-5.4-48.08-5.44l-28.74-.03-36.21,148.18,34.36-.43c31.35-.38,35.09-.61,42.79-2.59,19.33-4.96,30.67-14.54,37.53-31.68,7.03-17.59,4.48-32.01-7.24-41.02Zm-59.14-56.46h18.75c10.31.01,21.54.49,24.97,1.06,8.43,1.43,14.52,5.38,15.83,10.3,1.27,4.71-.67,16.45-3.67,22.28-2.55,4.97-9.84,10.69-15.81,12.41-2.42.69-13.93,1.39-27.98,1.68l-23.87.5,11.79-48.23Zm45.83,102.95c-8.61,10.73-17.51,13.01-50.92,13.03l-23.25.02,12.71-52h24.79c26.98,0,33.14.87,39.09,5.54,5.09,4,5.99,9.32,3.38,19.96-1.9,7.72-2.72,9.63-5.79,13.45Z"/>
        <path class="cls-1" d="m631.54,231.99l8.16-34.52-1.66-6.7c-2.77-11.15-10.95-17.36-26.64-20.21-9.11-1.65-16.52-1.77-28.01-.46-8.22.94-25.2,5.32-29.08,7.5-2.51,1.41-2.74,2.01-6.26,16.42l-3.65,14.95,5.49-3.01c9.23-5.07,21.33-8.18,32.28-8.31,8.44-.1,10.08.19,14.38,2.58,5.96,3.32,7.24,6.62,5.94,15.28l-.99,6.56-4.17-2c-11.01-5.27-30.81-6.41-43.65-2.51-8.43,2.56-16.28,8.01-21.5,14.92-4.24,5.6-4.61,6.52-7.41,17.97-2.62,10.74-2.81,12.61-1.73,16.98,3.44,13.9,17.23,20.59,42.44,20.59,27.9,0,45.98-5.64,54.55-17.02,3.36-4.45,3.45-4.75,11.53-39.01Zm-36.78,16.33c-1.11,4.51-2.51,9.16-3.11,10.33-1.66,3.23-6.12,4.64-16.15,5.11-8.12.38-9.52.17-13.02-1.96-8.89-5.42-6.1-17.97,4.97-22.38,4.02-1.6,20.86-1.83,25.84-.35l3.5,1.04-2.02,8.21Z"/>
        <path class="cls-4" d="m984,178.14c-9.48-5.81-25.15-7.6-39.9-4.57-9.46,1.95-17.04,5.5-24.47,11.44-13.17,10.54-20.19,22.78-25.55,44.51-3.93,15.95-4.39,24.19-1.92,34.16,4.01,16.15,16.73,24.31,37.91,24.31,16.33,0,28.04-4.13,39.97-14.09,12.61-10.52,20.23-23.78,25.12-43.67,6.38-25.94,2.58-43.66-11.17-52.09Zm-23.38,84.82c-5.98,5.21-11.08,7.57-19.54,9.04-7.83,1.36-18.18.04-23.34-2.97-12.36-7.2-12.53-33.54-.4-57.57,5.53-10.96,13.84-18.43,24.53-22.04,2.76-.94,7.46-1.32,14.08-1.15,8.63.21,10.62.63,15.06,3.1,9.78,5.47,12,14.97,8.02,34.44-3.82,18.66-8.87,28.84-18.41,37.15Z"/>
        <path class="cls-2" d="m1052.35,173.02c-11.65,2.34-22,8.49-28.91,17.17-3.76,4.72-4.46,6.27-6.29,13.82-1.62,6.72-1.81,9.35-.91,12.57,2.3,8.16,9.67,14.02,22.43,17.84,9.45,2.82,21.06,8.64,23.5,11.79,3.87,4.97,2.14,13.03-4.02,18.7-5.41,4.98-13.45,7.49-23.75,7.41-10.23-.08-16.93-2.11-26.03-7.89l-5.66-3.6-2.24,9.15-2.24,9.15,5.13,2.55c15.99,7.94,37.23,8.46,53.01,1.3,20.22-9.17,31.82-33.39,22.94-47.91-3.24-5.29-12.46-10.49-26.3-14.81-5.16-1.61-11.09-4.01-13.16-5.34-11.28-7.2-6.24-21.37,9.06-25.52,4.18-1.14,8.45-1.49,14.43-1.18,7.44.38,9.47.95,16.36,4.62,4.33,2.3,8.25,4.19,8.73,4.19s1.75-3.62,2.83-8.05l1.97-8.06-4.68-2.32c-2.58-1.28-6.74-3.1-9.26-4.06-5.29-2.01-20.26-2.85-26.96-1.5h0Z"/>
        <path class="cls-7" d="m1143.09,173.36c-8.68,1.95-13.35,4.04-19.75,8.83-8.19,6.14-12.42,12.42-14.75,21.88-1.51,6.13-1.61,8.53-.54,12.73,2.18,8.59,7.55,12.73,23.5,18.1,11.39,3.84,21.93,9.75,23.57,13.22,1.72,3.64-.06,10.74-3.78,15.06-6.26,7.26-18.94,10.74-32.23,8.87-5.52-.78-9.5-2.24-15.74-5.75-4.59-2.59-8.65-4.87-9.01-5.08-.36-.2-1.64,3.66-2.85,8.58l-2.19,8.95,6.45,3.24c19.46,9.77,45.78,7.64,61.88-4.99,7.81-6.13,11.09-11.08,14.1-21.26,3.13-10.61,2.77-15.69-1.54-21.62-3.86-5.31-8.77-8.02-23.78-13.09-19.24-6.5-22.62-9.72-20.28-19.32,1.44-5.89,4.82-9.02,12.64-11.72,5.18-1.79,7.79-2.09,15.16-1.75,7.85.36,9.89.9,17.25,4.59,4.59,2.3,8.52,4.19,8.73,4.19s1.29-3.77,2.42-8.37l2.04-8.37-8.82-3.73c-7.25-3.06-10.41-3.8-17.74-4.11-5.3-.23-11.28.14-14.74.92h0Z"/>
        <path class="cls-1" d="m650.05,173.52c-.07.3,3.8,25.12,8.6,55.16l8.74,54.61-2.7,4.32c-5.85,9.34-15.26,13.02-26.1,10.2l-5.61-1.46-3.16,14.08-3.17,14.08,6.09,1.68c20.27,5.6,38.99-3,56.74-26.07,4.07-5.29,76.49-118.78,80-125.37.86-1.62-.4-1.75-17.12-1.75h-18.05l-13.42,23.75c-22.54,39.88-26.68,46.83-26.96,45.25-.14-.83-1.44-16.58-2.87-35l-2.61-33.5-19.12-.27c-10.52-.15-19.18-.02-19.26.28h0Z"/>
      </g>
      <g>
        <path class="cls-5" d="m148.43.95c-8.96,1.08-23.18,5.15-31.9,9.13-28.54,13.01-50.7,35.24-64.26,64.45q-4.09,8.81-28.18,123.81L0,313.33l1.46,5.62c1.98,7.62,6.14,13.27,12.23,16.6,4.34,2.38,6.31,2.78,13.58,2.78s9.12-.33,13.57-2.7c8.23-4.38,12.55-8.77,40.13-40.68,27.51-31.83,36.78-41.02,49.14-48.69,16.5-10.24,32.11-14.77,56.39-16.37,17.32-1.14,30.75-3.99,44.46-9.43,18.26-7.25,38.56-21.13,53.37-36.47,4.06-4.21,8.09-8.26,8.96-9.02,2.28-1.98,9.29-11.98,13.84-19.74,10.38-17.71,17.85-44.14,17.79-62.9-.1-30.64-12.24-56.32-34.69-73.42-13.13-9.99-29.15-16.1-47.43-18.07-11.06-1.19-84.3-1.11-94.36.1"/>
        <path class="cls-6" d="m285.31,182.94c-8.73,9.43-23.59,21.21-35.59,28.22-19.92,11.63-38.41,17.1-63.24,18.74-24.28,1.6-39.89,6.13-56.39,16.37-12.35,7.67-21.63,16.86-49.14,48.69-26.32,30.45-32.45,36.8-38.13,39.49-1.68.79-3.15,1.91-3.27,2.47-.44,2.12,5.76,13.6,10.79,19.95,9.11,11.52,22.62,20.37,38.28,25.08,7.21,2.17,9.44,2.28,52.94,2.66,31.29.27,48.45.03,55.16-.79,61.42-7.48,116.85-60.47,125.92-120.38,3.99-26.35-.34-49.01-13.19-69.1-4.16-6.51-15.03-18.53-16.67-18.43-.56.03-3.92,3.2-7.47,7.04"/>
      </g>
    </g>
  </g>
</svg>