<svg id="Layer_1" data-name="Layer 1" xmlns="http://www.w3.org/2000/svg" xmlns:xlink="http://www.w3.org/1999/xlink" viewBox="0 0 514.4 528.05"><defs><style>.cls-1{fill:url(#linear-gradient);}.cls-2{fill:url(#linear-gradient-2);}</style><linearGradient id="linear-gradient" x1="94.49" y1="317.63" x2="375.02" y2="233.18" gradientUnits="userSpaceOnUse"><stop offset="0.24" stop-color="#ff9b57"/><stop offset="0.36" stop-color="#fb954f"/><stop offset="0.55" stop-color="#f1843a"/><stop offset="0.76" stop-color="#e26a1a"/></linearGradient><linearGradient id="linear-gradient-2" x1="42.65" y1="261.4" x2="369.35" y2="163.05" gradientUnits="userSpaceOnUse"><stop offset="0.24" stop-color="#1b64ce"/><stop offset="0.31" stop-color="#2366d0"/><stop offset="0.42" stop-color="#386dd7"/><stop offset="0.56" stop-color="#5b77e1"/><stop offset="0.71" stop-color="#8b85ef"/><stop offset="0.76" stop-color="#9a8af4"/></linearGradient></defs><path class="cls-1" d="M281.81,217.17h0a88.82,88.82,0,0,1-74.2-40l-38.45-58.4a30.14,30.14,0,0,0-24.71-13.56h0a33.32,33.32,0,0,0-33.82,33.31V356.69a98.25,98.25,0,0,0,98.24,98.25h72.94A118.88,118.88,0,0,0,400.69,336.06h0A118.88,118.88,0,0,0,281.81,217.17Z"/><path class="cls-2" d="M249.21,295.37h0a88.86,88.86,0,0,0-74.2,40l-38.45,58.39a30.12,30.12,0,0,1-24.71,13.56h0A33.31,33.31,0,0,1,78,374V155.85a98.24,98.24,0,0,1,98.24-98.24h72.93A118.87,118.87,0,0,1,368.09,176.49h0A118.87,118.87,0,0,1,249.21,295.37Z"/></svg>