<svg width="500" height="500" viewBox="0 0 500 500" fill="none" xmlns="http://www.w3.org/2000/svg">
<path d="M163.51 179.966L90.458 222.409L166.74 266.676L240.085 224.511L163.51 179.966Z" fill="#E9E9FF"/>
<path d="M240.085 224.511V305.51L166.74 348.436V266.676L240.085 224.511Z" fill="#B8B8D8"/>
<path d="M90.458 222.409V227.036L166.74 271.461V266.676L90.458 222.409Z" fill="#777793"/>
<path d="M162.771 264.37V346.146L166.74 348.436V266.676L162.771 264.37Z" fill="#777793"/>
<path d="M162.285 361.774L90.458 320.018V227.036L164.756 270.027L162.285 361.774Z" fill="#B8B8D8"/>
<path d="M218.608 394.35L306.53 343.502L305.729 190.251L218.037 228.657L218.608 394.35Z" fill="#9B9BBA"/>
<path d="M218.608 235.834L162.348 202.88V361.868L218.608 394.35V235.834Z" fill="#777793"/>
<path d="M231.634 153.749L159.615 194.929L222.212 231.068L293.455 189.441L231.634 153.749Z" fill="#E9E9FF"/>
<path d="M235.141 208.048L280.526 181.976L244.565 161.215L199.293 187.354L235.141 208.048Z" fill="#47476D"/>
<path d="M237.903 196.216L261.465 182.002L242.322 171.27L218.609 185.076L237.903 196.216Z" fill="#221F4F"/>
<path d="M199.293 187.354L235.141 208.048L222.212 231.068L159.615 194.929L199.293 187.354Z" fill="#9B9BBA"/>
<path d="M200.873 188.32C191.766 193.614 191.736 202.198 200.821 207.478C209.928 212.769 224.793 212.769 233.955 207.478C234.018 207.443 234.069 207.403 234.131 207.366L200.873 188.32Z" fill="#ABABCE"/>
<path d="M201.813 195.303L221.149 206.45L223.312 205.237L204.022 194.067L201.813 195.303Z" fill="#47476D"/>
<path d="M159.615 194.929V201.589L222.212 238.17V231.068L159.615 194.929Z" fill="#47476D"/>
<path d="M293.455 189.441L222.212 231.068V238.17L300.11 193.285L293.455 189.441Z" fill="#777793"/>
<path d="M231.572 50.3989V153.655L373.076 235.353V132.099L231.572 50.3989Z" fill="#B8B8D8"/>
<path d="M372.94 387.774L373.076 132.099L390.825 121.695V377.155L372.94 387.774Z" fill="#D5D5EF"/>
<path d="M249.168 40.4459L231.572 50.3989L373.076 132.099L390.825 121.695L249.168 40.4459Z" fill="#E9E9FF"/>
<path d="M300.048 193.191V348.361L373.076 387.774V235.353L300.048 193.191Z" fill="#B8B8D8"/>
<path d="M361.049 186.124V205.515L336.561 191.376V172.198L361.049 186.124Z" fill="#777793"/>
<path d="M357.855 192.9V195.507L339.111 185.005V182.206L357.855 192.9Z" fill="#47476D"/>
<path d="M357.855 194.371L339.111 183.893" stroke="#221F4F" stroke-width="0.5" stroke-miterlimit="10"/>
<path d="M361.049 163.412V182.803L336.561 168.663V149.485L361.049 163.412Z" fill="#777793"/>
<path d="M357.855 170.188V172.795L339.111 162.292V159.493L357.855 170.188Z" fill="#47476D"/>
<path d="M357.855 171.658L339.111 161.182" stroke="#221F4F" stroke-width="0.5" stroke-miterlimit="10"/>
<path d="M314.311 179.882L298.304 170.735L314.915 160.909L330.238 170.288L314.311 179.882Z" fill="#47476D"/>
<path d="M314.227 142.754L314.632 161.104L298.304 170.735L298.219 158.88L306.761 147.063L314.227 142.754Z" fill="#221F4F"/>
<path d="M313.968 142.624L314.227 142.754L306.761 147.063L306.496 146.883L313.968 142.624Z" fill="#9B9BBA"/>
<path d="M298.219 158.88L306.761 147.063L306.496 146.883L297.96 158.712L298.219 158.88Z" fill="#9B9BBA"/>
<path d="M298.304 170.735L298.219 158.88L297.96 158.712V170.54L298.304 170.735Z" fill="#9B9BBA"/>
<path d="M310.397 147.518L314.314 145.341L328.508 152.899L324.138 155.421L310.397 147.518Z" fill="#D5D5EF"/>
<path d="M302.361 169.799L315.702 177.501L324.34 155.537L310.397 147.518L302.361 169.799Z" fill="#B8B8D8"/>
<path d="M321.191 156.06L310.876 150.178L308.71 155.764L318.505 161.35L321.191 156.06Z" fill="#A8EB57"/>
<path d="M316.358 162.611L314.244 161.394L313.472 163.506L315.548 164.727L316.358 162.611Z" fill="#777793"/>
<path d="M313.472 160.962L311.356 159.745L310.585 161.855L312.66 163.077L313.472 160.962Z" fill="#777793"/>
<path d="M310.65 159.295L308.537 158.079L307.764 160.19L309.843 161.411L310.65 159.295Z" fill="#777793"/>
<path d="M315.233 165.44L313.118 164.225L312.346 166.335L314.424 167.555L315.233 165.44Z" fill="#777793"/>
<path d="M312.346 163.79L310.23 162.574L309.461 164.685L311.537 165.905L312.346 163.79Z" fill="#777793"/>
<path d="M309.524 162.124L307.41 160.909L306.641 163.02L308.716 164.24L309.524 162.124Z" fill="#777793"/>
<path d="M314.122 168.285L312.006 167.069L311.234 169.181L313.31 170.401L314.122 168.285Z" fill="#777793"/>
<path d="M311.234 166.635L309.121 165.419L308.35 167.532L310.423 168.751L311.234 166.635Z" fill="#777793"/>
<path d="M308.415 164.97L306.301 163.753L305.527 165.865L307.602 167.085L308.415 164.97Z" fill="#777793"/>
<path d="M313.027 171.098L310.914 169.883L310.143 171.995L312.221 173.213L313.027 171.098Z" fill="#83CE17"/>
<path d="M310.143 169.449L308.028 168.231L307.258 170.344L309.332 171.564L310.143 169.449Z" fill="#FFA500"/>
<path d="M307.322 167.783L305.207 166.566L304.436 168.679L306.511 169.898L307.322 167.783Z" fill="#F05A00"/>
<path d="M330.238 151.901V170.288L314.311 179.882L314.227 168.027L322.773 156.21L330.238 151.901Z" fill="#47476D"/>
<path d="M329.978 151.77L330.238 151.901L322.773 156.21L322.507 156.03L329.978 151.77Z" fill="#E9E9FF"/>
<path d="M314.227 168.027L322.773 156.21L322.507 156.03L313.97 167.86L314.227 168.027Z" fill="#E9E9FF"/>
<path d="M314.311 179.882L314.227 168.027L313.97 167.86V179.686L314.311 179.882Z" fill="#9B9BBA"/>
<path d="M282.452 123.665V183.03L243.338 160.406L243.213 101.952L282.452 123.665Z" fill="#9B9BBA"/>
<path d="M270.787 145.784V175.008L251.523 163.905V134.663L270.787 145.784Z" fill="#221F4F"/>
<path d="M270.787 150.028L251.523 139.206V134.663L270.787 145.784V150.028Z" fill="#F05A00"/>
<path d="M278.341 150.145V164.735L274.913 162.757V148.167L278.341 150.145Z" fill="#221F4F"/>
<path d="M259.22 159.448C259.46 159.336 259.498 158.907 259.304 158.49C259.11 158.073 258.757 157.827 258.517 157.938C258.277 158.051 258.238 158.479 258.431 158.896C258.626 159.313 258.979 159.559 259.22 159.448Z" fill="#F05A00"/>
<path d="M259.779 157.613C260.02 157.501 260.057 157.073 259.863 156.655C259.669 156.239 259.317 155.992 259.077 156.104C258.837 156.216 258.798 156.644 258.992 157.062C259.186 157.477 259.538 157.725 259.779 157.613Z" fill="#F05A00"/>
<path d="M260.897 159.653C261.138 159.54 261.176 159.111 260.981 158.695C260.788 158.278 260.435 158.031 260.194 158.143C259.955 158.255 259.917 158.684 260.11 159.101C260.306 159.517 260.657 159.765 260.897 159.653Z" fill="#F05A00"/>
<path d="M261.604 157.885C261.844 157.774 261.882 157.344 261.688 156.927C261.497 156.511 261.142 156.263 260.901 156.375C260.661 156.487 260.624 156.915 260.817 157.333C261.013 157.749 261.363 157.997 261.604 157.885Z" fill="#F05A00"/>
<path d="M262.724 160.23C262.964 160.118 263.001 159.689 262.808 159.272C262.615 158.855 262.263 158.608 262.022 158.72C261.781 158.833 261.744 159.261 261.938 159.678C262.13 160.094 262.483 160.341 262.724 160.23Z" fill="#F05A00"/>
<path d="M260.059 161.491C260.299 161.379 260.337 160.949 260.144 160.533C259.95 160.116 259.597 159.869 259.357 159.981C259.117 160.093 259.079 160.522 259.273 160.939C259.466 161.355 259.817 161.602 260.059 161.491Z" fill="#F05A00"/>
<path d="M261.796 161.793C262.036 161.681 262.073 161.251 261.881 160.835C261.687 160.418 261.334 160.171 261.093 160.283C260.854 160.395 260.816 160.825 261.009 161.241C261.202 161.657 261.556 161.904 261.796 161.793Z" fill="#F05A00"/>
<path d="M296.059 94.8878V153.246L232.883 116.771V58.4128L296.059 94.8878Z" fill="#ABABCE"/>
<path d="M291.7 96.3409V146.648L237.243 115.206V64.9019L291.7 96.3409Z" fill="#221F4F"/>
<path d="M299.218 151.421L296.059 153.246V94.8879L299.216 93.0649L299.218 151.421Z" fill="#D5D5EF"/>
<path d="M236.005 56.5569L299.216 93.0649L296.059 94.8879L232.883 58.4129L236.005 56.5569Z" fill="#E9E9FF"/>
<path opacity="0.3" d="M237.243 64.9019L291.7 146.648V96.3409L237.243 64.9019Z" fill="url(#paint0_linear_54090_1369)"/>
<path opacity="0.3" d="M218.726 308.458L254.335 373.341L300.03 346.768L299.896 262.901L218.726 308.458Z" fill="#777793"/>
<path d="M300.066 256.373L218.726 303.336L326.052 365.617L407.957 318.531L300.066 256.373Z" fill="#E9E9FF"/>
<path d="M407.957 318.531V408.986L326.052 456.924V365.617L407.957 318.531Z" fill="#B8B8D8"/>
<path d="M218.726 303.336V308.458L326.052 370.963V365.617L218.726 303.336Z" fill="#777793"/>
<path d="M321.62 363.045V454.364L326.052 456.924V365.617L321.62 363.045Z" fill="#777793"/>
<path d="M310.098 88.5879V62.1729L303.059 57.7949V84.5219L310.098 88.5879Z" fill="#777793"/>
<path d="M310.067 88.5329L315.862 85.3099V58.5979L310.095 62.2149L310.067 88.5329Z" fill="#9B9BBA"/>
<path d="M310.344 54.167V78.3479L289.246 66.2559V42.174L310.344 54.167Z" fill="#83CE17"/>
<path d="M331.04 66.301L310.344 78.348V54.167L330.876 42.127L331.04 66.301Z" fill="#A8EB57"/>
<path d="M310.344 30.085L289.246 42.174L310.344 54.167L330.876 42.127L310.344 30.085Z" fill="#C9FF7B"/>
<path d="M331.484 329.892L336.571 243.135L284.625 213.414L278.73 300.971L331.484 329.892Z" fill="#F78028"/>
<path d="M359.868 314.097L352.373 233.767L342.729 235.906L336.571 243.135L331.484 329.892L347.68 315.959L359.868 314.097Z" fill="#F05A00"/>
<path d="M300.423 204.045L352.373 233.767L342.729 235.906L336.571 243.135L284.625 213.414L295.872 210.468L300.423 204.045Z" fill="#415C71"/>
<path fill-rule="evenodd" clip-rule="evenodd" d="M326.693 241.083C327.501 247.753 325.839 253.365 321.684 255.768C314.754 259.766 303.581 253.373 296.725 241.488C292.604 234.348 291 226.868 291.854 221.154L290.027 220.108C289.177 226.362 290.984 234.484 295.453 242.223C303.008 255.316 315.314 262.356 322.943 257.952C327.454 255.348 329.312 249.326 328.52 242.134L326.693 241.083Z" fill="#415C71"/>
<path d="M343.226 349.613L338.585 270.495L385.958 243.391L391.334 323.239L343.226 349.613Z" fill="#A8EB57"/>
<path d="M317.342 335.206L324.179 261.95L332.97 263.903L338.585 270.495L343.226 349.613L328.456 336.907L317.342 335.206Z" fill="#83CE17"/>
<path d="M371.554 234.848L324.179 261.95L332.97 263.903L338.585 270.495L385.958 243.391L375.702 240.706L371.554 234.848Z" fill="#415C71"/>
<path d="M376.689 252.709L375.747 253.252C376.169 254.035 376.573 254.844 376.959 255.674C383.155 268.987 383.946 283.68 374.42 288.443C366.839 292.236 354.139 282.53 347.944 269.213C347.925 269.174 346.707 269.862 346.707 269.862C346.911 270.34 347.124 270.814 347.345 271.29C354.334 286.317 367.035 295.214 375.708 291.183C384.373 287.147 385.735 271.696 378.745 256.676C378.106 255.3 377.417 253.98 376.689 252.709Z" fill="#415C71"/>
<path d="M288.145 337.664L292.266 267.386L250.184 243.31L245.409 314.237L288.145 337.664Z" fill="#83CE17"/>
<path d="M311.135 325.623L305.063 260.554L297.254 262.286L292.266 268.142L288.145 338.42L301.263 327.134L311.135 325.623Z" fill="#A8EB57"/>
<path d="M262.981 236.477L305.063 260.554L297.254 262.286L292.266 268.142L250.184 244.066L259.294 241.68L262.981 236.477Z" fill="#415C71"/>
<path fill-rule="evenodd" clip-rule="evenodd" d="M284.262 266.478C284.914 271.883 283.571 276.428 280.206 278.375C274.591 281.614 265.542 276.435 259.987 266.81C256.646 261.026 255.347 254.965 256.039 250.337L254.56 249.489C253.872 254.556 255.335 261.134 258.956 267.404C265.075 278.009 275.045 283.711 281.224 280.144C284.876 278.034 286.383 273.158 285.739 267.331L284.262 266.478Z" fill="#415C71"/>
<path d="M231.759 215.283C231.759 215.283 236.86 211.411 240.357 209.986C243.88 208.573 247.15 206.977 250.774 204.035C252.5 202.635 257.063 194.868 253.424 190.413C251.877 188.518 248.414 192.908 245.828 194.703C242.779 196.82 240.546 197.748 240.546 197.748C240.546 197.748 240.897 196.41 240.897 193.729C240.897 191.406 239.313 189.948 234.805 199.644C231.031 207.76 223.831 206.035 223.831 206.035L231.759 215.283Z" fill="#B27343"/>
<path opacity="0.2" d="M252.465 198.064C247.813 201.84 243.616 203.889 239.093 205.703C235.56 207.142 230.765 210.519 228.878 211.895L231.781 215.282C231.781 215.282 236.882 211.41 240.38 209.985C243.903 208.572 247.172 206.976 250.795 204.034C252.006 203.052 254.603 198.939 254.796 195.032C253.938 196.48 253.066 197.575 252.465 198.064Z" fill="#FAC1AC"/>
<path d="M135.968 447.253L137.479 448.263C137.479 448.263 141.019 448.759 145.055 447.756C149.104 446.749 153.647 446.994 152.888 450.787C152.128 454.571 145.565 457.603 142.787 458.875C140.009 460.13 131.374 464.305 127.082 463.295C122.788 462.29 122.882 459.869 122.811 458.551C122.598 454.643 122.893 445.986 122.893 445.986L135.968 447.253Z" fill="#221F4F"/>
<path d="M122.765 394.858C123.103 379.433 127.325 367.975 127.325 367.975C127.325 367.975 126.535 308.75 124.821 293.774C123.103 278.794 126.334 268.627 127.584 264.095C127.807 259.308 130.789 258.381 130.789 258.381L171.197 265.874L163.042 326.672C157.634 351.443 156.307 381.021 150.894 387.904C141.605 399.718 140.758 441.905 139.408 452.984C139.408 452.984 133.289 456.949 128.249 456.292C121.182 455.37 121.297 452.715 121.297 448.135C121.297 448.135 122.422 410.286 122.765 394.858Z" fill="#415C71"/>
<path opacity="0.2" d="M139.788 369.521C149.045 325.186 117.13 280.503 139.58 260.013L130.788 258.382C130.788 258.382 127.806 259.309 127.583 264.096C126.333 268.628 123.45 282.582 125.168 297.562C126.882 312.538 127.324 367.976 127.324 367.976C127.324 367.976 123.102 379.434 122.764 394.859C122.422 410.287 121.295 448.136 121.295 448.136C121.295 452.716 121.18 455.371 128.247 456.293C132.127 456.799 136.635 454.57 138.51 453.516C122.068 421.403 132.232 405.702 139.788 369.521Z" fill="#415C71"/>
<path d="M203.861 436.584L205.472 437.651C205.472 437.651 209.238 438.187 213.527 437.115C217.838 436.041 222.674 436.312 221.869 440.337C221.05 444.377 214.073 447.597 211.115 448.945C208.161 450.282 202.674 452.206 196.297 452.302C190.433 452.391 189.863 451.031 189.545 449.593C188.647 445.526 192.034 435.436 192.034 435.436L203.861 436.584Z" fill="#221F4F"/>
<path d="M137.576 260.684C137.576 260.684 131.612 277.368 139.493 292.779C145.857 305.226 197.332 367.893 197.332 367.893C197.332 367.893 191.04 395.007 189.944 406.904C188.849 418.802 190.68 427.059 189.079 437.896C189.079 437.896 187.345 444.003 189.944 444.524C194.128 445.363 201.959 444.018 204.659 442.419C207.36 440.821 216.065 383.722 221.956 376.2C227.746 368.812 225.609 363.573 221.956 351.907C218.304 340.243 187.435 266.099 187.435 266.099L137.576 260.684Z" fill="#415C71"/>
<path opacity="0.2" d="M197.945 413.635C199.202 399.987 218.413 376.443 217.402 365.099C215.1 339.3 178.282 286.62 170.98 272.34C167.519 265.576 141.93 267.187 141.849 261.148L137.576 260.684C137.576 260.684 131.612 277.368 139.493 292.779C145.857 305.226 197.332 367.893 197.332 367.893C197.332 367.893 191.04 395.007 189.944 406.904C188.849 418.802 190.68 427.059 189.079 437.896C189.079 437.896 187.345 444.003 189.944 444.524C193.802 445.297 200.755 444.213 203.932 442.786C204.762 432.495 196.85 425.544 197.945 413.635Z" fill="#415C71"/>
<path d="M167.16 159.44C173.166 161.906 182.577 166.283 189.442 172.781C196.289 179.267 193.526 197.788 194.252 207.54C194.977 217.276 190.341 271.309 190.341 271.309C190.341 271.309 170.963 278.951 159.412 277.876C147.865 276.788 131.148 270.168 125.735 260.429C125.735 260.429 127.332 219.009 126.287 205.559C124.944 188.281 126.821 170.485 128.739 163.639C130.216 158.361 141.352 148.402 153.257 154.183C153.257 154.183 163.723 158.028 167.16 159.44Z" fill="url(#paint1_linear_54090_1369)"/>
<path opacity="0.4" d="M174.548 257.477C151.337 261.918 133.99 223.641 131.694 188.282C130.709 173.111 132.433 163.261 139.423 153.683C133.752 155.893 129.601 160.561 128.739 163.64C126.821 170.487 124.944 188.282 126.287 205.56C127.332 219.01 125.735 260.43 125.735 260.43C131.148 270.169 147.865 276.789 159.412 277.877C170.962 278.951 190.341 271.31 190.341 271.31C190.341 271.31 190.994 264.44 192.035 250.242C186.616 255.862 184.148 255.641 174.548 257.477Z" fill="#F05A00"/>
<path d="M187.406 171.14C180.958 170.278 177.878 176.375 176.026 179.775C171.527 188.035 169.947 209.528 171.018 218.148C172.313 228.575 173.894 236.769 181.12 244C185.351 248.234 187.781 248.227 195.483 244C203.184 239.771 235.681 214.954 235.681 214.954C235.681 214.954 237.236 209.541 234.889 206.507C232.542 203.472 229.86 202.544 229.86 202.544L199.457 218.424C199.457 218.424 197.1 186.842 195.198 182.122C193.296 177.402 190.742 171.586 187.406 171.14Z" fill="#F78028"/>
<path d="M201.949 233.343C194.247 237.57 191.818 237.577 187.586 233.343C180.36 226.112 178.779 217.918 177.484 207.491C176.556 200.023 177.619 182.896 180.845 173.081C178.565 174.983 177.091 177.822 176.027 179.775C171.527 188.035 169.949 209.528 171.019 218.148C172.314 228.575 173.894 236.769 181.121 244C185.352 248.234 187.782 248.227 195.484 244C203.185 239.771 235.682 214.954 235.682 214.954C235.682 214.954 236.58 211.815 235.972 208.978C226.161 216.381 207.536 230.276 201.949 233.343Z" fill="#F05A00"/>
<path d="M184.61 111.938C186.375 127.56 187.305 127.675 185.647 136.776C185.175 139.366 183.41 144.384 180.075 145.722C176.742 147.057 171.322 145.644 171.322 145.644V165.168C171.322 165.168 160.037 169.224 152.354 163.552V155.879V116.389C152.354 116.389 165.479 101.835 184.61 111.938Z" fill="#B27343"/>
<path d="M183.94 133.817L188.952 131.639L185.502 119.242L183.94 133.817Z" fill="#B27343"/>
<path d="M185.269 108.369C182.94 95.437 133.583 90.577 141.936 125.962C144.548 137.026 154.499 143.685 154.499 143.685C154.499 143.685 167.125 138.213 166.993 133.818C166.555 119.235 169.346 115.515 172.308 114.876C175.88 114.106 186.927 117.581 185.269 108.369Z" fill="#5B3C29"/>
<path d="M170.887 130.083C170.887 133.282 168.679 135.876 165.954 135.876C163.23 135.876 161.021 133.282 161.021 130.083C161.021 126.883 163.231 124.29 165.954 124.29C168.679 124.29 170.887 126.884 170.887 130.083Z" fill="#B27343"/>
<defs>
<linearGradient id="paint0_linear_54090_1369" x1="291.7" y1="105.572" x2="237.225" y2="105.201" gradientUnits="userSpaceOnUse">
<stop stop-color="#9A8AF4"/>
<stop offset="1" stop-color="#1B64CE"/>
</linearGradient>
<linearGradient id="paint1_linear_54090_1369" x1="194.329" y1="214.895" x2="125.711" y2="214.511" gradientUnits="userSpaceOnUse">
<stop stop-color="#FF9B57"/>
<stop offset="0.73" stop-color="#E26A1A"/>
</linearGradient>
</defs>
</svg>
