<?xml version="1.0" encoding="UTF-8"?>
<svg xmlns="http://www.w3.org/2000/svg" xmlns:xlink="http://www.w3.org/1999/xlink" viewBox="0 0 451.5 402.58">
  <defs>
    <style>
      .cls-1 {
        stroke: url(#linear-gradient-10);
      }

      .cls-1, .cls-2, .cls-3, .cls-4, .cls-5 {
        fill: none;
      }

      .cls-1, .cls-2, .cls-3, .cls-5 {
        stroke-miterlimit: 10;
      }

      .cls-1, .cls-3, .cls-5 {
        stroke-width: 1.62px;
      }

      .cls-6 {
        fill: url(#linear-gradient-12);
      }

      .cls-6, .cls-7, .cls-8, .cls-9, .cls-10, .cls-11, .cls-12, .cls-13, .cls-14, .cls-15, .cls-16, .cls-17, .cls-18, .cls-19, .cls-20, .cls-4, .cls-21, .cls-22, .cls-23, .cls-24, .cls-25, .cls-26, .cls-27, .cls-28, .cls-29, .cls-30, .cls-31, .cls-32, .cls-33, .cls-34, .cls-35, .cls-36, .cls-37, .cls-38, .cls-39, .cls-40, .cls-41, .cls-42, .cls-43, .cls-44, .cls-45, .cls-46, .cls-47, .cls-48, .cls-49, .cls-50, .cls-51, .cls-52, .cls-53, .cls-54, .cls-55, .cls-56, .cls-57, .cls-58, .cls-59, .cls-60, .cls-61, .cls-62, .cls-63, .cls-64, .cls-65, .cls-66 {
        stroke-width: 0px;
      }

      .cls-7 {
        opacity: .24;
      }

      .cls-7, .cls-62 {
        fill: #f6fafe;
      }

      .cls-8 {
        fill: url(#linear-gradient-17);
      }

      .cls-9 {
        fill: url(#linear-gradient-19);
      }

      .cls-10 {
        fill: url(#linear-gradient-33);
      }

      .cls-11 {
        fill: url(#linear-gradient);
      }

      .cls-12 {
        fill: #5082de;
      }

      .cls-13 {
        fill: #9384ff;
      }

      .cls-2 {
        stroke: url(#linear-gradient-38);
        stroke-width: 3.42px;
      }

      .cls-14 {
        fill: url(#linear-gradient-21);
      }

      .cls-15 {
        fill: url(#linear-gradient-6);
      }

      .cls-16 {
        fill: #bb7f79;
      }

      .cls-67 {
        isolation: isolate;
      }

      .cls-3 {
        stroke: #9384ff;
      }

      .cls-17 {
        fill: url(#linear-gradient-42);
      }

      .cls-18 {
        fill: #1a1a1a;
      }

      .cls-19 {
        fill: url(#linear-gradient-15);
      }

      .cls-20 {
        fill: url(#linear-gradient-5);
      }

      .cls-68 {
        mix-blend-mode: soft-light;
      }

      .cls-21 {
        fill: url(#linear-gradient-31);
      }

      .cls-22 {
        fill: url(#linear-gradient-34);
      }

      .cls-23 {
        fill: #c5d5f6;
      }

      .cls-24 {
        fill: url(#linear-gradient-41);
      }

      .cls-25 {
        fill: url(#linear-gradient-40);
      }

      .cls-26 {
        fill: url(#linear-gradient-13);
      }

      .cls-27 {
        fill: url(#linear-gradient-23);
      }

      .cls-28 {
        fill: url(#linear-gradient-25);
      }

      .cls-29 {
        fill: url(#linear-gradient-43);
      }

      .cls-30 {
        fill: url(#linear-gradient-16);
      }

      .cls-31 {
        fill: url(#linear-gradient-22);
      }

      .cls-5 {
        stroke: url(#linear-gradient-11);
      }

      .cls-32 {
        fill: #fff;
      }

      .cls-33 {
        fill: url(#linear-gradient-35);
      }

      .cls-34 {
        fill: url(#linear-gradient-32);
      }

      .cls-35 {
        fill: #e3abc7;
      }

      .cls-36 {
        fill: url(#linear-gradient-20);
      }

      .cls-37 {
        fill: url(#linear-gradient-14);
      }

      .cls-38 {
        fill: url(#linear-gradient-2);
      }

      .cls-39 {
        fill: url(#linear-gradient-45);
      }

      .cls-40 {
        fill: url(#linear-gradient-7);
      }

      .cls-41 {
        fill: url(#linear-gradient-39);
      }

      .cls-42 {
        fill: url(#linear-gradient-3);
      }

      .cls-69 {
        clip-path: url(#clippath);
      }

      .cls-43 {
        fill: url(#linear-gradient-9);
      }

      .cls-44 {
        fill: url(#linear-gradient-27);
      }

      .cls-45 {
        fill: #3d337a;
      }

      .cls-46 {
        fill: #42210b;
      }

      .cls-47 {
        fill: url(#linear-gradient-36);
      }

      .cls-48 {
        fill: url(#linear-gradient-48);
      }

      .cls-49 {
        fill: url(#linear-gradient-49);
      }

      .cls-50 {
        fill: url(#linear-gradient-8);
      }

      .cls-51 {
        fill: url(#linear-gradient-47);
      }

      .cls-52 {
        fill: url(#linear-gradient-24);
      }

      .cls-53 {
        fill: url(#linear-gradient-26);
      }

      .cls-54 {
        fill: url(#linear-gradient-18);
      }

      .cls-55 {
        fill: #eaf7fe;
      }

      .cls-56 {
        fill: #603813;
      }

      .cls-57 {
        fill: #768ecb;
      }

      .cls-58 {
        fill: url(#linear-gradient-30);
      }

      .cls-59 {
        fill: url(#linear-gradient-44);
      }

      .cls-60 {
        fill: url(#linear-gradient-29);
      }

      .cls-61 {
        fill: url(#linear-gradient-46);
      }

      .cls-63 {
        fill: url(#linear-gradient-28);
      }

      .cls-64 {
        fill: url(#linear-gradient-4);
      }

      .cls-65 {
        fill: url(#linear-gradient-37);
      }

      .cls-66 {
        fill: #fd9853;
      }
    </style>
    <linearGradient id="linear-gradient" x1="0" y1="211.1" x2="451.5" y2="211.1" gradientUnits="userSpaceOnUse">
      <stop offset="0" stop-color="#9cf" stop-opacity=".7"/>
      <stop offset=".14" stop-color="#8bc0f9" stop-opacity=".66"/>
      <stop offset=".39" stop-color="#68a1ec" stop-opacity=".55"/>
      <stop offset=".51" stop-color="#5791e5" stop-opacity=".5"/>
      <stop offset=".91" stop-color="#8fb9f9" stop-opacity=".34"/>
      <stop offset="1" stop-color="#9dc4ff" stop-opacity=".3"/>
    </linearGradient>
    <linearGradient id="linear-gradient-2" x1="296.26" y1="64.05" x2="347.91" y2="64.05" gradientUnits="userSpaceOnUse">
      <stop offset="0" stop-color="#74a6ef"/>
      <stop offset=".45" stop-color="#4d89e0"/>
      <stop offset=".99" stop-color="#1b64ce"/>
    </linearGradient>
    <linearGradient id="linear-gradient-3" x1="322.08" y1="119.53" x2="383.17" y2="119.53" gradientUnits="userSpaceOnUse">
      <stop offset="0" stop-color="#3073d6"/>
      <stop offset=".99" stop-color="#1b64ce"/>
    </linearGradient>
    <linearGradient id="linear-gradient-4" x1="82.37" y1="166.25" x2="155.1" y2="166.25" xlink:href="#linear-gradient-3"/>
    <linearGradient id="linear-gradient-5" x1="93.16" y1="119.53" x2="149.1" y2="119.53" xlink:href="#linear-gradient-3"/>
    <linearGradient id="linear-gradient-6" x1="238.69" y1="112.59" x2="220.91" y2="15.24" gradientUnits="userSpaceOnUse">
      <stop offset="0" stop-color="#5f96e8"/>
      <stop offset=".85" stop-color="#256bd1"/>
      <stop offset=".99" stop-color="#1b64ce"/>
    </linearGradient>
    <linearGradient id="linear-gradient-7" x1="160.26" y1="132.46" x2="248.49" y2="132.46" xlink:href="#linear-gradient-6"/>
    <linearGradient id="linear-gradient-8" x1="160.26" y1="260.41" x2="248.49" y2="260.41" xlink:href="#linear-gradient-6"/>
    <linearGradient id="linear-gradient-9" x1="160.26" y1="196.66" x2="248.49" y2="196.66" xlink:href="#linear-gradient-6"/>
    <linearGradient id="linear-gradient-10" x1="269.42" y1="207.13" x2="304.27" y2="207.13" gradientTransform="translate(445.08 -109.32) rotate(80.73)" xlink:href="#linear-gradient-3"/>
    <linearGradient id="linear-gradient-11" x1="269.42" y1="275.79" x2="304.27" y2="275.79" gradientTransform="translate(512.84 -51.72) rotate(80.73)" xlink:href="#linear-gradient-3"/>
    <linearGradient id="linear-gradient-12" x1="277.72" y1="269.03" x2="311.02" y2="269.03" xlink:href="#linear-gradient-3"/>
    <linearGradient id="linear-gradient-13" x1="56.89" y1="359.19" x2="70.1" y2="359.19" xlink:href="#linear-gradient-3"/>
    <linearGradient id="linear-gradient-14" x1="100.09" y1="278.24" x2="123.36" y2="278.24" gradientUnits="userSpaceOnUse">
      <stop offset="0" stop-color="#ff9a56"/>
      <stop offset=".16" stop-color="#fc9550"/>
      <stop offset=".37" stop-color="#f3873f"/>
      <stop offset=".62" stop-color="#e67123"/>
      <stop offset=".69" stop-color="#e26a1a"/>
    </linearGradient>
    <linearGradient id="linear-gradient-15" x1="100.09" y1="352.63" x2="123.36" y2="352.63" gradientUnits="userSpaceOnUse">
      <stop offset=".54" stop-color="#e3abc7"/>
      <stop offset=".66" stop-color="#e7b7cf"/>
      <stop offset=".83" stop-color="#ebc3d6"/>
      <stop offset="1" stop-color="#edc7d9"/>
    </linearGradient>
    <linearGradient id="linear-gradient-16" x1="100.09" y1="341.41" x2="123.36" y2="341.41" gradientUnits="userSpaceOnUse">
      <stop offset="0" stop-color="#9dc4ff"/>
      <stop offset=".16" stop-color="#8eb9f9"/>
      <stop offset=".46" stop-color="#699eeb"/>
      <stop offset=".87" stop-color="#2d71d5"/>
      <stop offset=".99" stop-color="#1b64ce"/>
    </linearGradient>
    <linearGradient id="linear-gradient-17" x1="100.21" y1="203.99" x2="123.27" y2="203.99" gradientUnits="userSpaceOnUse">
      <stop offset="0" stop-color="#edc7d9"/>
      <stop offset=".17" stop-color="#ebc3d6"/>
      <stop offset=".34" stop-color="#e7b7cf"/>
      <stop offset=".46" stop-color="#e3abc7"/>
    </linearGradient>
    <linearGradient id="linear-gradient-18" x1="60.96" y1="255.15" x2="68.72" y2="255.15" gradientUnits="userSpaceOnUse">
      <stop offset="0" stop-color="#946c45"/>
      <stop offset=".25" stop-color="#9d7853"/>
      <stop offset="1" stop-color="#b69b7d"/>
    </linearGradient>
    <linearGradient id="linear-gradient-19" x1="60.02" y1="246.2" x2="74.37" y2="246.2" gradientUnits="userSpaceOnUse">
      <stop offset="0" stop-color="#946c45"/>
      <stop offset=".17" stop-color="#9c744c"/>
      <stop offset="1" stop-color="#c69c6d"/>
    </linearGradient>
    <linearGradient id="linear-gradient-20" x1="57.83" y1="244.62" x2="75.41" y2="244.62" gradientUnits="userSpaceOnUse">
      <stop offset=".24" stop-color="#1a1a1a"/>
      <stop offset=".58" stop-color="#1a3254"/>
    </linearGradient>
    <linearGradient id="linear-gradient-21" x1="40.61" y1="278.39" x2="74.13" y2="278.39" gradientUnits="userSpaceOnUse">
      <stop offset=".31" stop-color="#e26a1a"/>
      <stop offset=".38" stop-color="#e67123"/>
      <stop offset=".63" stop-color="#f3873f"/>
      <stop offset=".84" stop-color="#fc9550"/>
      <stop offset="1" stop-color="#ff9a56"/>
    </linearGradient>
    <linearGradient id="linear-gradient-22" x1="56.09" y1="258.02" x2="99.18" y2="258.02" xlink:href="#linear-gradient-14"/>
    <linearGradient id="linear-gradient-23" x1="42.44" y1="328.15" x2="67.97" y2="328.15" gradientUnits="userSpaceOnUse">
      <stop offset=".12" stop-color="#1b64ce"/>
      <stop offset=".23" stop-color="#2c69d3"/>
      <stop offset=".43" stop-color="#4a72dc"/>
      <stop offset=".63" stop-color="#5f78e2"/>
      <stop offset=".82" stop-color="#6c7ce6"/>
      <stop offset="1" stop-color="#717ee8"/>
    </linearGradient>
    <linearGradient id="linear-gradient-24" x1="13.04" y1="324.81" x2="57.38" y2="324.81" xlink:href="#linear-gradient-23"/>
    <linearGradient id="linear-gradient-25" x1="12.35" y1="355.35" x2="24.01" y2="355.35" xlink:href="#linear-gradient-3"/>
    <linearGradient id="linear-gradient-26" x1="205.67" y1="11.12" x2="175.09" y2="28.59" xlink:href="#linear-gradient-20"/>
    <linearGradient id="linear-gradient-27" x1="174.09" y1="48.88" x2="204.05" y2="48.88" gradientUnits="userSpaceOnUse">
      <stop offset="0" stop-color="#e7c366"/>
      <stop offset=".11" stop-color="#e6c05f"/>
      <stop offset=".27" stop-color="#e3ba4f"/>
      <stop offset=".44" stop-color="#dfaf33"/>
      <stop offset=".63" stop-color="#d8a00c"/>
      <stop offset=".69" stop-color="#d79c00"/>
    </linearGradient>
    <linearGradient id="linear-gradient-28" x1="119.39" y1="72.86" x2="190.1" y2="72.86" gradientUnits="userSpaceOnUse">
      <stop offset="0" stop-color="#c69c6d"/>
      <stop offset=".83" stop-color="#9c744c"/>
      <stop offset="1" stop-color="#946c45"/>
    </linearGradient>
    <linearGradient id="linear-gradient-29" x1="139.92" y1="91.96" x2="177.35" y2="91.96" xlink:href="#linear-gradient-18"/>
    <linearGradient id="linear-gradient-30" x1="167.13" y1="42.52" x2="203.32" y2="42.52" gradientUnits="userSpaceOnUse">
      <stop offset=".51" stop-color="#e7c366"/>
      <stop offset=".7" stop-color="#dfb139"/>
      <stop offset=".9" stop-color="#d9a20f"/>
      <stop offset="1" stop-color="#d79c00"/>
    </linearGradient>
    <linearGradient id="linear-gradient-31" x1="154.44" y1="46.24" x2="163.29" y2="46.24" gradientUnits="userSpaceOnUse">
      <stop offset="0" stop-color="#a87f55"/>
      <stop offset="1" stop-color="#c69c6d"/>
    </linearGradient>
    <linearGradient id="linear-gradient-32" x1="185.99" y1="19.73" x2="178.34" y2="24.25" xlink:href="#linear-gradient-31"/>
    <linearGradient id="linear-gradient-33" x1="170.18" y1="15.16" x2="183.33" y2="15.16" gradientUnits="userSpaceOnUse">
      <stop offset="0" stop-color="#c69c6d"/>
      <stop offset="1" stop-color="#a87f55"/>
    </linearGradient>
    <linearGradient id="linear-gradient-34" x1="199.63" y1=".55" x2="169.06" y2="18.02" gradientUnits="userSpaceOnUse">
      <stop offset=".24" stop-color="#1a1a1a"/>
      <stop offset=".58" stop-color="#1a3254"/>
    </linearGradient>
    <linearGradient id="linear-gradient-35" x1="185.1" y1="79.73" x2="154.19" y2="54.08" gradientUnits="userSpaceOnUse">
      <stop offset=".12" stop-color="#7562ff"/>
      <stop offset=".39" stop-color="#8372ff"/>
      <stop offset=".7" stop-color="#8f7fff"/>
      <stop offset="1" stop-color="#9384ff"/>
    </linearGradient>
    <linearGradient id="linear-gradient-36" x1="373.56" y1="232.73" x2="405.86" y2="261.88" xlink:href="#linear-gradient-20"/>
    <linearGradient id="linear-gradient-37" x1="355.08" y1="238.61" x2="394.67" y2="238.61" xlink:href="#linear-gradient-14"/>
    <clipPath id="clippath">
      <circle class="cls-4" cx="297.74" cy="156.96" r="43.73" transform="translate(-23.78 256.51) rotate(-45)"/>
    </clipPath>
    <linearGradient id="linear-gradient-38" x1="246.32" y1="169.85" x2="328.23" y2="169.85" gradientTransform="translate(412.02 -139.69) rotate(81.36)" xlink:href="#linear-gradient-16"/>
    <linearGradient id="linear-gradient-39" x1="260.59" y1="156.96" x2="358.34" y2="156.96" xlink:href="#linear-gradient-16"/>
    <linearGradient id="linear-gradient-40" x1="265.34" y1="115.74" x2="382.02" y2="265.1" xlink:href="#linear-gradient-16"/>
    <linearGradient id="linear-gradient-41" x1="375.83" y1="321.68" x2="390.9" y2="321.68" xlink:href="#linear-gradient-19"/>
    <linearGradient id="linear-gradient-42" x1="396.61" y1="275.7" x2="384.91" y2="325.31" xlink:href="#linear-gradient-19"/>
    <linearGradient id="linear-gradient-43" x1="378.79" y1="258.24" x2="397.56" y2="258.24" xlink:href="#linear-gradient-21"/>
    <linearGradient id="linear-gradient-44" x1="372.88" y1="289.72" x2="398.56" y2="289.72" gradientUnits="userSpaceOnUse">
      <stop offset="0" stop-color="#9384ff"/>
      <stop offset=".3" stop-color="#8f7fff"/>
      <stop offset=".61" stop-color="#8372ff"/>
      <stop offset=".88" stop-color="#7562ff"/>
    </linearGradient>
    <linearGradient id="linear-gradient-45" x1="380.68" y1="356.66" x2="388.07" y2="356.66" xlink:href="#linear-gradient-3"/>
    <linearGradient id="linear-gradient-46" x1="409.11" y1="286.27" x2="414.88" y2="286.27" xlink:href="#linear-gradient-3"/>
    <linearGradient id="linear-gradient-47" x1="383.28" y1="235.28" x2="408.35" y2="235.28" xlink:href="#linear-gradient-28"/>
    <linearGradient id="linear-gradient-48" x1="359.64" y1="242.7" x2="400.01" y2="242.7" xlink:href="#linear-gradient-14"/>
    <linearGradient id="linear-gradient-49" x1="364.81" y1="246.06" x2="356.37" y2="214.91" xlink:href="#linear-gradient-19"/>
  </defs>
  <g class="cls-67">
    <g id="Layer_2" data-name="Layer 2">
      <g id="OBJECTS">
        <g>
          <g>
            <path class="cls-11" d="m441.58,250.76c-12.85,20.84-36.02,34.55-59.49,40.13-13,3.09-27.1,4.44-37.66,12.64-15.63,12.13-18.93,34.18-30.55,49.47-18.22,23.99-47.01,40.66-77.44,46.89-18.32,3.74-37.25,3.7-54.82-.82-10.62-2.72-20.77-7.1-29.98-13.26-6.69-4.46-12.89-9.88-18.45-16.3-1.62-1.88-3.19-3.85-4.71-5.9-3.89-5.28-6.9-10.98-9.29-16.92-2.91-7.21-4.94-14.78-6.56-22.45-1.16-5.42-2.12-10.89-3.06-16.32-1.39-7.98-2.7-16.2-4.3-24.34-3.42-17.37-8.14-34.43-17.6-48.38-6.28-9.27-14.67-17.16-26.16-22.84-.57-.28-1.13-.55-1.71-.81-7.81-3.62-16.16-5.95-24.29-8.84-1.76-.62-3.51-1.27-5.23-1.96-6.9-2.76-12.45-6.37-16.82-10.6-5.11-4.95-8.6-10.75-10.73-17.1-7.76-22.98,2.25-52.9,17.21-73.92,15.28-21.48,38.8-33.71,62.47-27.89,5.99,1.46,11.98,4.09,17.85,8.01.19.13.39.26.58.39,6.72,4.59,12.28,10.81,19.01,15.3,1.12.76,2.28,1.46,3.47,2.11,7.09,3.79,15.45,4.88,23.36,3.47h.01c6.59-1.16,12.86-4.06,17.82-8.56,14-12.7,16.08-34.13,27.39-49.21l1.39-1.79.05-.06c11.14-13.38,29.21-18.88,46.52-20.65,5.42-.55,10.95-.75,16.46-.56,16.16.54,32.29,4.41,45.69,12.46,6.38,3.84,12.13,8.62,16.97,14.45,1.9,2.29,3.66,4.76,5.13,7.39,3,5.32,4.87,11.23,4.59,17.28-.18,3.88-1.19,7.55-2.67,11.09-2.81,6.7-7.3,12.95-10.96,19.32-5.59,9.74-9.19,22.74-2.34,31.66.87,1.13,1.86,2.13,2.94,3,4.32,3.55,10.11,5.31,15.61,6.8,2.85.77,5.71,1.47,8.6,2.13,11.53,2.65,23.34,4.53,35.03,6.83,15.38,3.02,30.54,6.78,44.58,13.9.4.18.8.39,1.18.59,13.85,7.25,23.15,18.51,27.67,31.41,5.8,16.54,3.72,35.78-6.74,52.75Z"/>
            <g>
              <path class="cls-7" d="m100.22,79.24L13.43,190.14c-5.11-4.95-8.6-10.75-10.73-17.1l79.68-101.81c5.99,1.46,11.98,4.09,17.85,8.01Z"/>
              <path class="cls-7" d="m146.65,100.52l-86.88,111.02c-7.81-3.62-16.16-5.95-24.29-8.84l84.34-107.77c1.12.76,2.28,1.46,3.47,2.11,7.09,3.79,15.45,4.88,23.36,3.47Z"/>
              <path class="cls-62" d="m328.68,71.28c-.18,3.88-1.19,7.55-2.67,11.09L119.17,346.69c-2.91-7.21-4.94-14.78-6.56-22.45L324.09,53.99c3,5.32,4.87,11.23,4.59,17.28Z"/>
              <path class="cls-62" d="m339.87,145.27l-188.24,240.53c-6.69-4.46-12.89-9.88-18.45-16.3l182.47-233.16c4.32,3.55,10.11,5.31,15.61,6.8,2.85.77,5.71,1.47,8.6,2.13Z"/>
              <path class="cls-7" d="m301.99,32.15l-196.74,251.42c-3.42-17.37-8.14-34.43-17.6-48.38L256.3,19.69c16.16.54,32.29,4.41,45.69,12.46Z"/>
              <path class="cls-7" d="m419.47,166.01l-183.03,233.88c-18.32,3.74-37.25,3.7-54.82-.82l193.28-246.97c15.38,3.02,30.54,6.78,44.58,13.9Z"/>
            </g>
          </g>
          <g>
            <g>
              <path class="cls-38" d="m340.26,54.14c-6.02,1.06-8.26,6.56-13.06,8.74,3.41-5.85,5.07-9.37,10.26-13.72,3.81-3.19,12.05-9.81,6.04-15.12-5.94-5.24-12.18,4.12-13.54,9.07-.86,3.16-.63,6.37-1.36,9.52-.82,3.53-2.54,6.27-4.08,9.66,1.28-5.23,1.51-12.05-.7-17.11-2.72-6.23-8.81-11.23-10.92-1.38-1.2,5.62.57,11.1,3.89,15.7,1.49,2.08,4.76,3.85,4.89,6.39.12,2.32-2.79,5.44-3.25,7.78-1.14-5.89-3.63-13.04-5.83-18.71-2.22-5.75-8.06-12.77-14.23-6.91-5.59,5.3,1.2,14.26,5.45,18.25,3.49,3.28,11.31,6.39,11.99,11.38.52,3.78-3.8,11.34-6.23,14.17l1.32.54c.42.63.6,1.18,1.33,1.59,3.05-4.27,5.54-9.41,7.39-14.44,3.39,3.93,7.82,7.22,11.42,10.88,4.15,4.22,8.56,8.66,12.61,1.01,2.89-5.47-1.58-11.85-5.94-14.68-5.5-3.56-10.03-3.06-16.21-2.15,1.87-4.89,3.52-9.22,9.31-10.29,4.92-.9,9.62,2.1,14.31-1.23,6-4.26,1.22-10.02-4.89-8.95Z"/>
              <path class="cls-42" d="m382.94,102.5c-1.88-7.7-12.35-3.58-16.3-.28-2.51,2.1-4.16,4.87-6.55,7.04-2.69,2.43-5.66,3.7-8.86,5.6,4.04-3.56,8.12-9.03,9.2-14.44,1.32-6.67-.82-14.25-8.17-7.37-4.2,3.93-5.87,9.43-5.78,15.11.04,2.56,1.71,5.88.36,8.04-1.23,1.98-5.39,2.87-7.12,4.53,2.43-5.48,4.47-12.78,5.91-18.69,1.46-5.99.68-15.08-7.73-13.8-7.61,1.16-7.16,12.39-5.95,18.09.99,4.68,5.63,11.7,3.34,16.19-1.73,3.4-9.59,7.14-13.2,8.07l.78,1.2c-.01.75-.18,1.31.19,2.06,4.94-1.76,9.93-4.56,14.31-7.63.54,5.16,2.29,10.39,3.16,15.45,1,5.83,2.08,12,9.78,8.03,5.5-2.84,5.47-10.63,3.51-15.44-2.48-6.06-6.49-8.24-12.07-11.02,4.33-2.95,8.15-5.56,13.52-3.13,4.55,2.07,6.69,7.22,12.45,7.17,7.36-.07,6.72-7.53,1.1-10.14-5.55-2.57-10.53.67-15.71-.28,6.14-2.85,9.51-4.8,16.26-5.4,4.95-.44,15.49-1.17,13.59-8.96Z"/>
            </g>
            <g>
              <path class="cls-64" d="m155.1,163.44c-5.53-1.01-11.66-1.08-17.38-.57,2.26-5.08,3.43-10.89,5.34-16.05,2.2-5.95,4.49-12.27-4.79-12.69-6.63-.31-10.78,6.94-11.52,12.47-.94,6.96,1.62,11.13,5.32,16.71-5.6.42-10.56.8-14.24-4.34-3.12-4.36-2.35-10.29-7.73-13.32-6.87-3.88-10.28,3.4-6.44,8.83,3.78,5.36,10.14,5.01,14.45,8.67-7.23-.64-11.41-.64-18-3.69-4.84-2.24-15.02-7.21-17.42,1.05-2.37,8.16,9.56,9.94,14.99,8.99,3.46-.6,6.47-2.3,9.86-3.03,3.8-.82,7.24-.4,11.23-.46-5.66,1.15-12.38,4.04-16.28,8.5-4.8,5.49-6.86,13.68,3.65,11.22,6-1.4,10.5-5.62,13.46-10.94,1.33-2.4,1.56-6.38,3.97-7.66,2.2-1.18,6.55.22,9.04-.4-5.19,3.79-10.99,9.48-15.49,14.2-4.56,4.78-8.7,13.65-.2,16.96,7.69,3,13.28-7.68,15.21-13.62,1.58-4.88,1.04-13.89,5.57-16.83,3.43-2.23,12.73-1.5,16.59-.43l-.09-1.53c.42-.69.87-1.12.93-2.02Z"/>
              <path class="cls-20" d="m147.48,118.11c-3.16-4.64-10.17-3.77-14.29-1.47-5.19,2.89-6.71,6.74-8.61,12.08-3.13-3.58-5.9-6.73-4.29-11.83,1.37-4.33,5.77-6.82,5.09-11.99-.86-6.62-7.52-5.23-9.25.12-1.71,5.28,1.75,9.41,1.46,14.18-3.24-5.22-5.36-8.04-6.64-14.05-.94-4.41-2.75-13.82-9.55-11.26-6.72,2.53-1.87,11.52,1.53,14.71,2.16,2.03,4.84,3.21,7.06,5.13,2.48,2.16,3.95,4.7,6.01,7.37-3.65-3.25-9.02-6.33-14.01-6.7-6.15-.46-12.74,2.3-5.74,8.16,3.99,3.35,9.14,4.26,14.24,3.55,2.3-.32,5.11-2.18,7.2-1.21,1.91.89,3.17,4.54,4.86,5.91-5.2-1.59-11.99-2.63-17.47-3.28-5.55-.66-13.65,1.04-11.58,8.47,1.88,6.73,11.94,5.09,16.94,3.38,4.11-1.41,9.92-6.35,14.21-4.78,3.25,1.19,7.47,7.85,8.71,11.01l.99-.83c.68-.07,1.2.02,1.84-.4-2.13-4.25-5.19-8.44-8.44-12.05,4.59-1.05,9.11-3.2,13.57-4.53,5.14-1.54,10.58-3.19,6.16-9.68Z"/>
            </g>
          </g>
          <g>
            <rect class="cls-66" x="135.49" y="75.93" width="196.48" height="271.09" rx="7.98" ry="7.98"/>
            <rect class="cls-32" x="149.1" y="89.37" width="169.26" height="244.21"/>
            <path class="cls-15" d="m264.46,71.78h-5.33c-.52-13.57-11.7-24.42-25.4-24.42s-24.88,10.85-25.4,24.42h-5.33c-2.35,0-4.24,1.9-4.24,4.25v18.83c0,2.34,1.89,4.24,4.24,4.24h61.46c2.35,0,4.24-1.9,4.24-4.24v-18.83c0-2.35-1.89-4.25-4.24-4.25Zm-30.73-4.11c-2.51,0-4.54-2.03-4.54-4.54s2.03-4.54,4.54-4.54,4.54,2.03,4.54,4.54-2.03,4.54-4.54,4.54Z"/>
            <g>
              <g>
                <path class="cls-40" d="m246.69,134.26h-84.63c-.99,0-1.8-.81-1.8-1.8h0c0-.99.81-1.8,1.8-1.8h84.63c.99,0,1.8.81,1.8,1.8h0c0,.99-.81,1.8-1.8,1.8Z"/>
                <g>
                  <path class="cls-23" d="m238.94,142.62h-76.88c-.99,0-1.8-.81-1.8-1.8h0c0-.99.81-1.8,1.8-1.8h76.88c.99,0,1.8.81,1.8,1.8h0c0,.99-.81,1.8-1.8,1.8Z"/>
                  <path class="cls-23" d="m238.94,160.36h-76.88c-.99,0-1.8-.81-1.8-1.8h0c0-.99.81-1.8,1.8-1.8h76.88c.99,0,1.8.81,1.8,1.8h0c0,.99-.81,1.8-1.8,1.8Z"/>
                  <g>
                    <path class="cls-23" d="m206.95,151.44h-44.89c-.99,0-1.8-.81-1.8-1.8h0c0-.99.81-1.8,1.8-1.8h44.89c.99,0,1.8.81,1.8,1.8h0c0,.99-.81,1.8-1.8,1.8Z"/>
                    <path class="cls-23" d="m260.14,151.44h-44.89c-.99,0-1.8-.81-1.8-1.8h0c0-.99.81-1.8,1.8-1.8h44.89c.99,0,1.8.81,1.8,1.8h0c0,.99-.81,1.8-1.8,1.8Z"/>
                  </g>
                </g>
              </g>
              <g>
                <path class="cls-50" d="m246.69,262.21h-84.63c-.99,0-1.8-.81-1.8-1.8h0c0-.99.81-1.8,1.8-1.8h84.63c.99,0,1.8.81,1.8,1.8h0c0,.99-.81,1.8-1.8,1.8Z"/>
                <g>
                  <path class="cls-23" d="m238.94,270.57h-76.88c-.99,0-1.8-.81-1.8-1.8h0c0-.99.81-1.8,1.8-1.8h76.88c.99,0,1.8.81,1.8,1.8h0c0,.99-.81,1.8-1.8,1.8Z"/>
                  <path class="cls-23" d="m238.94,288.31h-76.88c-.99,0-1.8-.81-1.8-1.8h0c0-.99.81-1.8,1.8-1.8h76.88c.99,0,1.8.81,1.8,1.8h0c0,.99-.81,1.8-1.8,1.8Z"/>
                  <g>
                    <path class="cls-23" d="m206.95,279.38h-44.89c-.99,0-1.8-.81-1.8-1.8h0c0-.99.81-1.8,1.8-1.8h44.89c.99,0,1.8.81,1.8,1.8h0c0,.99-.81,1.8-1.8,1.8Z"/>
                    <path class="cls-23" d="m260.14,279.38h-44.89c-.99,0-1.8-.81-1.8-1.8h0c0-.99.81-1.8,1.8-1.8h44.89c.99,0,1.8.81,1.8,1.8h0c0,.99-.81,1.8-1.8,1.8Z"/>
                  </g>
                </g>
              </g>
              <g>
                <path class="cls-43" d="m246.69,198.46h-84.63c-.99,0-1.8-.81-1.8-1.8h0c0-.99.81-1.8,1.8-1.8h84.63c.99,0,1.8.81,1.8,1.8h0c0,.99-.81,1.8-1.8,1.8Z"/>
                <g>
                  <path class="cls-23" d="m238.94,216.06h-76.88c-.99,0-1.8-.81-1.8-1.8h0c0-.99.81-1.8,1.8-1.8h76.88c.99,0,1.8.81,1.8,1.8h0c0,.99-.81,1.8-1.8,1.8Z"/>
                  <path class="cls-23" d="m219.54,224.12h-57.48c-.99,0-1.8-.81-1.8-1.8h0c0-.99.81-1.8,1.8-1.8h57.48c.99,0,1.8.81,1.8,1.8h0c0,.99-.81,1.8-1.8,1.8Z"/>
                  <g>
                    <path class="cls-23" d="m206.95,207.13h-44.89c-.99,0-1.8-.81-1.8-1.8h0c0-.99.81-1.8,1.8-1.8h44.89c.99,0,1.8.81,1.8,1.8h0c0,.99-.81,1.8-1.8,1.8Z"/>
                    <path class="cls-23" d="m260.14,207.13h-44.89c-.99,0-1.8-.81-1.8-1.8h0c0-.99.81-1.8,1.8-1.8h44.89c.99,0,1.8.81,1.8,1.8h0c0,.99-.81,1.8-1.8,1.8Z"/>
                  </g>
                </g>
              </g>
            </g>
            <g>
              <g>
                <circle class="cls-1" cx="286.84" cy="207.13" r="16.61" transform="translate(36.23 456.88) rotate(-80.73)"/>
                <path class="cls-13" d="m285.16,214.63c-.08,0-.17,0-.25-.02-.64-.08-1.21-.45-1.54-1l-5.34-8.81c-.6-.99-.28-2.28.71-2.88.99-.6,2.28-.28,2.88.71l3.95,6.52,21.87-21.87c.82-.82,2.15-.82,2.97,0,.82.82.82,2.15,0,2.97l-23.76,23.76c-.4.4-.93.62-1.49.62Z"/>
              </g>
              <g>
                <circle class="cls-3" cx="286.84" cy="144.54" r="16.61" transform="translate(-33.58 122.13) rotate(-22.74)"/>
                <path class="cls-13" d="m285.16,152.05c-.08,0-.17,0-.25-.02-.64-.08-1.21-.45-1.54-1l-5.34-8.81c-.6-.99-.28-2.28.71-2.88.99-.6,2.28-.28,2.88.71l3.95,6.52,21.87-21.87c.82-.82,2.15-.82,2.97,0,.82.82.82,2.15,0,2.97l-23.76,23.76c-.4.4-.93.62-1.49.62Z"/>
              </g>
              <g>
                <circle class="cls-5" cx="286.84" cy="275.79" r="16.61" transform="translate(-31.53 514.48) rotate(-80.73)"/>
                <path class="cls-6" d="m285.16,283.01c-.08,0-.17,0-.25-.02-.64-.08-1.21-.45-1.54-1l-5.34-8.81c-.6-.99-.28-2.28.71-2.88.99-.6,2.28-.28,2.88.71l3.95,6.52,21.87-21.87c.82-.82,2.15-.82,2.97,0,.82.82.82,2.15,0,2.97l-23.76,23.76c-.4.4-.93.62-1.49.62Z"/>
              </g>
            </g>
          </g>
          <g>
            <g>
              <path class="cls-55" d="m137.87,360.75c0,1.52-28.18,2.75-62.95,2.75s-62.95-1.23-62.95-2.75,28.18-2.75,62.95-2.75,62.95,1.23,62.95,2.75Z"/>
              <g>
                <path class="cls-26" d="m57.28,356.94c-1.75,4.71,2.35,4.75,11.52,4.66,1.27-.02,2.16-1.37-.01-2.02l-6.73-2.75s-3.96-.08-4.63-.04l-.14.16Z"/>
                <g>
                  <rect class="cls-37" x="100.09" y="211.75" width="23.27" height="132.98"/>
                  <path class="cls-19" d="m100.09,344.73h23.27v10.87c0,2.71-2.2,4.92-4.92,4.92h-13.44c-2.71,0-4.92-2.2-4.92-4.92v-10.87h0Z"/>
                  <rect class="cls-30" x="100.09" y="338.08" width="23.27" height="6.65"/>
                  <polygon class="cls-8" points="123.27 211.65 100.21 211.85 106.88 196.14 116.48 196.14 123.27 211.65"/>
                  <polygon class="cls-45" points="123.49 212.14 123.27 211.65 123.48 211.65 123.49 212.14"/>
                  <polygon class="cls-13" points="116.48 196.14 106.88 196.14 111.61 185.02 116.48 196.14"/>
                </g>
                <g>
                  <path class="cls-54" d="m63.15,247.83s-1.58,5.32-2.18,9.96c-.28,2.18,5.29,4.77,5.52,4.69.27-.1.49-.36.47-.71-.12-2.28-.02-6.33,1.77-9.42l-5.57-4.52Z"/>
                  <g>
                    <g>
                      <path class="cls-9" d="m61.04,250.47c1.55,2.88,4.7,5.53,7.27,4.96,2.66-.59,4.61-3.68,5.18-6.44.03,0,.05.01.08,0,.33-.07.77-.19.79-.5.02-.29-.35-.54-.71-.73.02-.4.02-.19-.02-.58-.94-9.07-4.06-10.66-7.56-10.2-2.67.35-5.21,4.56-5.85,8.26-.37-.2-.34,4.95.82,5.23Z"/>
                      <path class="cls-56" d="m70.88,250.41c-.6-.4-1.18-1.1-1.15-2.29,0-.1.08-.18.18-.17.1,0,.17.08.17.18-.04,2.12,2.06,2.44,2.15,2.45.1.01.16.1.15.2-.01.1-.1.16-.2.15-.01,0-.67-.1-1.3-.52Z"/>
                      <path class="cls-56" d="m71.47,246.76c0,.59.22,1.06.51,1.07.29,0,.52-.47.53-1.06s-.22-1.06-.51-1.07c-.29,0-.52.47-.53,1.06Z"/>
                      <path class="cls-56" d="m70.41,244.95s-.01,0-.02,0c-.09-.05-.12-.15-.07-.24.55-1.03,1.51-.92,1.94-.72.09.04.13.15.09.23-.04.09-.14.13-.23.09-.03-.01-.96-.42-1.48.56-.04.08-.14.11-.22.08Z"/>
                    </g>
                    <path class="cls-36" d="m57.83,245.12c.01,1.08.16,2.16.41,3.21.61,2.45,2.94,4.43,3.4,4.63.81.34,1.71.67,2.45.22.59-.36.95-1.15,1.21-1.94.22-.66.4-1.36.52-2.07-.05.02-.12.03-.19.04-1.02.12-2.86-.64-3-1.83-.14-1.19.56-2.26,1.58-2.38.67-.08,1.31.27,1.7.86-.02-.21-.04-.41-.07-.62-.12-.86.06-1.72.4-2.52.04-.1.08-.2.11-.31.64.26,1.7.8,3.38.48.91-.18,5.66-1.05,5.68-4.51.01-2.67-10.57-3.4-13.87-1.23-1.26.79-2.91,2.79-3.4,5.76-.13.73-.31,1.46-.31,2.23Z"/>
                  </g>
                </g>
                <path class="cls-35" d="m97.22,246.85s-.14-6.61,2.18-8.12c.22-.15.69.01.7.28.06,3.52,0,5.4.14,7.87.73,2.06-.11,2.85-.96,3.59l-.2.22-1.86-3.83Z"/>
                <path class="cls-14" d="m56.97,259.13c-6.2,6.3-4.8,26.11-16.36,40.31h22.65c3.14-19.44,10.13-23.49,10.81-30.54,0-.06.01-.11.02-.17.47-5.48-3.61-10.32-9.08-10.99l-2.86-.35c-1.9-.24-3.84.38-5.18,1.74Z"/>
                <path class="cls-31" d="m97.22,246.85c-11.44,7.81-24.36,13.54-35.85,12.16-1.51-.18-3.01.37-4.04,1.49h0c-2.28,2.49-1.27,6.51,1.92,7.63h0c3.43,1.2,7.14,1.38,10.67.53,9.71-2.33,20.44-10.32,29.26-17.94l-1.96-3.86Z"/>
                <path class="cls-27" d="m42.44,299.44h20.09l3.02,10.78c2.89,10.29,3.19,21.13.88,31.57l-4.45,15.08h-4.6l1.15-7.19c1.41-14.91-2.39-29.85-10.74-42.28l-5.35-7.96Z"/>
                <path class="cls-52" d="m57.38,299.44c-8.51,21.51-20.77,39.25-39.22,50.74h-5.11c16.36-17.36,28.75-34.45,29.4-50.74h14.94Z"/>
                <path class="cls-28" d="m13.04,350.18h5.11l1.66,4.87c.48,1.41,1.55,2.55,2.94,3.08.28.11.56.25.82.42.86.6.38,1.97-.67,1.97h-2.71c-1.67,0-3.22-.83-4.14-2.22l-3-4.5s-1.55-1.96,0-3.62Z"/>
              </g>
            </g>
            <g>
              <path class="cls-53" d="m176.59,4.97c1.16-5.48,7.72-5.19,9.23-4.76,2.21.63,3.56,1.7,4.83,3.6,1.05,1.57,1.91,3.67,1.47,5.59-.44,1.91-1.64,3.77-1.7,5.76-.04,1.39,1.2,3.38,2.35,4.18,1.66,1.17,4.15.51,5.94,1.54,1.2.69,2.24,1.9,2.88,3.13.5.96,1.13,3.1.55,4.15-.48.87-1.37,1.28-1.66,2.36-.29,1.04-.11,2.27.59,3.1.68.81,1.76,1.22,2.81,1.19,1.58-.04,2.1-.9,2.93-2.01.18,1.36-1.51,3.09-2.41,3.97-1.15,1.12-5.48,2.86-7.05,3.07-6.94.91-12.21-1.77-16.01-7.35-1.6-2.35-.9-8.12-.02-10.77.58-1.76,2.16-2.12,2.53-3.95.38-1.83.52-4-.89-5.4-1.17-1.16-2.4-1.34-3.86-1.97-2.34-1.01-3-3.09-2.51-5.4Z"/>
              <path class="cls-44" d="m180.03,26.79l-3.17,4.51c-2.31,3.3-2.46,7.65-.38,11.09l2.33,3.85c2.23,5.61-.11,9.96-3.4,14.05l13.77,13.58c8.7-9.19,4.67-15.65,4.65-23.62-.01-3.27,1.77-7.84.83-10.97-1.62-5.36-4.69-10.5-9.52-15.37l-5.1,2.9Z"/>
              <path class="cls-63" d="m120.46,93.63c8.88,2.27,12.87,3.21,12.29-1.79l.11-.13,10.46-13.32.02-.09-1.05-5.04c-.74-3.55.81-7.16,3.88-9.08,1.39-.89,3-1.33,4.59-1.33,1.48,0,2.98.38,4.31,1.15l1.66.95,4.5,2.58,10.9,6.25c2.29,1.32,4.82,2.21,7.43,2.56h0c.95.12,1.93.19,2.9.16,3.76-.08,6.24-1.2,7.2-3.51.43-1.03.56-2.29.37-3.8-.57-4.74-3.98-8.66-8.49-10.2l-13.47-4.64h0s-7.27-2.76-7.27-2.76l-1.83-.69c-6.42-2.21-13.38,1.32-15.92,7.62l-12.94,32.3-.03.07-9.1.78c-2.27.12-1.73,1.65-.5,1.97Z"/>
              <path class="cls-60" d="m150.6,113.3l.02.07-7.16,5.69c-1.83,1.36-.53,2.31.67,1.9,8.65-3.01,12.5-4.44,9.26-8.28v-.09c-.16-17.12,4.4-36.65-.95-36.76l5.35.1,21.75.41-18.27-9.13-4.56-2.27-1.66-.95c-1.33-.77-2.83-1.15-4.31-1.15-1.59,0-3.19.44-4.59,1.33-3.06,1.92-4.61,5.53-3.88,9.08l1.05,5.04,7.26,35.01Z"/>
              <path class="cls-58" d="m162.33,49.04c.1-.22.96-3.3.96-3.3l27.13,6.15-6.7-14.39c-1.17-2.24-2-4.7-2.01-7.22-.02-3.27,1.79-5.83,5.45-4.55,3.37,1.18,3.98,4.65,5.45,7.9,7.63,16.87,9.12,25.83-3.12,26.04-3.5.06-6.94-.88-10.02-2.55l-17.14-8.07Z"/>
              <path class="cls-21" d="m163.29,45.73l-.96,3.3-7.89-3.23c1.24-3.13,4.43-3.12,8.85-.07Z"/>
              <path class="cls-57" d="m166.82,50.87l-1.05,2.68-18.73-7.26s-2.93-21.31-2.71-21.31h2.76l2.98,19.03,16.74,6.86Z"/>
              <path class="cls-34" d="m185.13,23.89l-3.01-4.8-4.61,1.99c1.45,1.9,2.6,3.8,2.52,5.71l5.1-2.9Z"/>
              <g>
                <g>
                  <path class="cls-10" d="m182.37,12.5c-1.54-3.22-4.94-6.41-7.47-6.05-3.31.48-5.75,2.74-4.28,11.27.06.37.16.73.28,1.09-.29.26-.56.59-.46.85.1.28.54.28.85.26.03,0,.05-.01.07-.03,1.23,2.38,3.66,4.15,6.24,4,2.5-.14,4.69-3.37,5.37-6.4.99-.55-.31-5.26-.6-4.99Z"/>
                  <path class="cls-56" d="m173.96,19.96c.44-.52.79-1.31.47-2.39-.03-.09-.12-.14-.21-.11-.09.03-.14.12-.11.21.58,1.93-1.25,2.76-1.33,2.79-.09.04-.12.14-.09.22.04.08.14.12.22.09.01,0,.58-.26,1.05-.81Z"/>
                  <path class="cls-56" d="m172.49,16.78c.16.53.07,1.03-.19,1.11-.26.08-.6-.3-.76-.83-.16-.53-.07-1.03.19-1.11.26-.08.6.3.76.83Z"/>
                  <path class="cls-56" d="m172.99,14.85s0,0,.01-.01c.07-.06.07-.17,0-.24-.77-.8-1.61-.45-1.96-.16-.07.06-.08.17-.02.24.06.07.16.08.24.02.02-.02.76-.63,1.5.13.06.06.16.07.22.02Z"/>
                </g>
                <path class="cls-22" d="m184.97,14.81c-.06,2.4-1.55,4.81-1.91,5.1-.65.52-1.39,1.05-2.18.82-.64-.17-1.16-.81-1.61-1.45-.37-.55-.71-1.14-1-1.76.05,0,.12,0,.18-.02.96-.15,2.45-1.32,2.27-2.45-.17-1.12-1.1-1.92-2.06-1.77-.63.1-1.12.58-1.33,1.22-.03-.14-3.89.04-7.47-1.48-.34.88-.14,1.84-.14,1.84-1.21-.94-1.36-1.91-1.27-2.58.06-.51.27-.85.27-.85-.31.15-.57.31-.77.49-1.52,1.37.05,3.43.19,3.6-3.83-2.24-1.71-5.66-1.71-5.66.32-.5,1.02-1.28,3.74-1.94,2.75-.66,1.86-3.33,7.52-2.98,2.95.2,7.45,3.21,7.29,9.84Z"/>
              </g>
              <g>
                <path class="cls-12" d="m144.13,120.97c-1.22.41-2.5-.54-.68-1.9l7.16-5.69-.02-.08c1.02-.26,1.97-.5,2.8-.71v.1c3.23,3.84-.61,5.26-9.26,8.28Z"/>
                <path class="cls-12" d="m132.75,91.84c.58,4.99-3.41,4.06-12.29,1.79-1.23-.32-1.77-1.84.49-1.96l9.11-.78.03-.06c1.16.37,2.14.68,2.78.88l-.11.14Z"/>
              </g>
              <path class="cls-33" d="m157.78,75.94l21.75.41h0c.95.12,1.93.19,2.9.16,3.76-.08,6.24-1.2,7.2-3.51.43-1.03.56-2.29.37-3.8-.57-4.74-3.98-8.66-8.49-10.2l-13.47-4.64h0s-7.27-2.76-7.27-2.76c.7,3.77,1.41,9.96.49,15.63,0,.1-.03.21-.06.31-.53,3.14-1.58,6.11-3.43,8.41Z"/>
            </g>
            <g>
              <path class="cls-55" d="m422.03,360.75c0,1.52-15.54,2.75-34.7,2.75s-34.7-1.23-34.7-2.75,15.54-2.75,34.7-2.75,34.7,1.23,34.7,2.75Z"/>
              <g>
                <path class="cls-47" d="m385.39,226.38c2.03-1.49,5.18-1.92,7.61-1.4,2.62.56,5.05,1.22,6.57,4.08,1.02,1.93.85,3.63.27,5.83-.44,1.68-1.73,4.04-.45,5.65.8,1.01,2.15,1.6,2.97,2.64.72.92,1.4,1.83,1.52,3.01.45,4.4-6.13,6.91-2.74,11.35.88,1.15,1.7,2.04.88,3.46-.89,1.53-2.81,2.01-3.45,3.8-.85,2.4,1.6,5.07,4.13,4.24-1.94,3.86-8.09,4.14-11.81,3.46-4.99-.91-8.6-2.37-9.7-7.57-.76-3.59-.65-7.47-.49-11.13.08-1.71.06-3.42.63-5.06.58-1.66,1.63-3.1,2.43-4.66.92-1.82,1.46-3.46,1.37-5.52-.05-1-.36-1.9-.47-2.87-.1-.89-4.94-5.15.73-9.32Z"/>
                <path class="cls-65" d="m392.47,250.17c-10.38-8.16-19.61-17.94-30.1-26.14-.69-3.77-1.27-4.46-1.65-4.41-.75.1-.27,2.88-.27,2.88l-.96-1.07c-2.63-3.39-4.19-1.22-4.19-1.22-1.49,2.39,5.13,5.5,5.13,5.5h.01c9.59,10.14,18.1,21.66,28.3,31.14.63.59,1.44.81,2.2.85,1.49.06,2.93-.37,3.45-1.91.74-2.22.02-4.09-1.92-5.62Z"/>
                <g>
                  <g>
                    <path class="cls-62" d="m341.27,156.96c0,24.15-19.58,43.73-43.73,43.73-3.06,0-6.04-.32-8.92-.91-4.61-.96-8.96-2.64-12.91-4.92-6.94-4.01-12.68-9.86-16.54-16.9-2.67-4.87-4.44-10.31-5.08-16.08-.18-1.61-.27-3.25-.27-4.91,0-20.67,14.34-37.98,33.61-42.55,3.25-.77,6.64-1.18,10.12-1.18,2.29,0,4.54.18,6.73.51,8.12,1.26,15.5,4.75,21.49,9.83,3.54,2.98,6.59,6.52,9.02,10.48,4.11,6.66,6.48,14.51,6.48,22.91Z"/>
                    <g class="cls-69">
                      <circle class="cls-2" cx="287.28" cy="169.85" r="39.25" transform="translate(76.19 428.34) rotate(-81.36)"/>
                      <path class="cls-41" d="m282.42,198c-.25,0-.49-.01-.74-.04-1.88-.23-3.55-1.31-4.53-2.93l-15.66-25.87c-1.76-2.91-.83-6.7,2.08-8.47,2.91-1.76,6.7-.83,8.47,2.08l11.59,19.14,64.19-64.19c2.41-2.41,6.31-2.41,8.72,0,2.41,2.41,2.41,6.31,0,8.72l-69.75,69.75c-1.16,1.16-2.73,1.81-4.36,1.81Z"/>
                    </g>
                    <g class="cls-68">
                      <path class="cls-62" d="m304.28,113.74l-45.1,64.2c-2.67-4.87-4.44-10.31-5.08-16.08l33.34-47.45c3.25-.77,6.64-1.18,10.12-1.18,2.29,0,4.54.18,6.73.51Z"/>
                      <path class="cls-62" d="m334.79,134.05l-46.17,65.72c-4.61-.96-8.96-2.64-12.91-4.92l50.06-71.28c3.54,2.98,6.59,6.52,9.02,10.48Z"/>
                    </g>
                  </g>
                  <g>
                    <g>
                      <circle class="cls-55" cx="324.03" cy="143.75" r="8.61"/>
                      <path class="cls-55" d="m311.02,128.14c0,2.54-2.06,4.6-4.6,4.6s-4.6-2.06-4.6-4.6,2.06-4.6,4.6-4.6,4.6,2.06,4.6,4.6Z"/>
                    </g>
                    <path class="cls-25" d="m376.8,225.96l-37.5-37.5c6.62-8.76,10.55-19.67,10.55-31.5,0-28.89-23.42-52.3-52.3-52.3s-52.3,23.42-52.3,52.3,23.42,52.3,52.3,52.3c11.57,0,22.26-3.77,30.92-10.13l37.58,37.58c2.97,2.97,7.78,2.97,10.75,0h0c2.97-2.97,2.97-7.78,0-10.75Zm-122.3-69c0-23.77,19.27-43.04,43.04-43.04s43.05,19.27,43.05,43.04-19.27,43.05-43.05,43.05-43.04-19.27-43.04-43.05Z"/>
                  </g>
                </g>
                <g>
                  <path class="cls-24" d="m390.8,296.82c-.44,4.17-1.56,8.83-2.59,13.69,0,.04-.02.08-.03.13-.03.15-.07.3-.1.46-1.06,4.83-3,11.45-3.73,16.35,1.66.64,1.67,3.1,1.56,4.3-.11,1.34-.19,2.67-.18,4.02.06,5.05.72,12.65,1.07,16.95.03.08.07.16.1.23.2.37.5.58.66.81.6.86.77,1.61.03,2.44-.74.82-1.35,1.73-1.76,2.83-.23.63-.62,1.01-1.39,1.1-1.09.1-2.46.14-3.62.23-.29-.79-.09-1.44.66-1.85.17-.11.47-.18.65-.28.78-.45,1.18-.87,1.32-1.84.07-.64.12-1.24.19-2.24,0,0,0-.02,0-.03-3.77-12.4-7.12-32.54-7.37-43.49,0-.62-.03-1.2-.04-1.75-.18-9.29,0-10.17-.14-18.43,0-.16,0-.02,0-.15-.08-1.86-.19-3.67-.22-5.49v-.02c0-.54-.02-1.1,0-1.65,0-.06-.02-.07.02-.14.78.24,1.71.42,2.67.59,1.4.24,2.85.48,3.88.85.51.19.98.37,1.45.59,4.97,2.18,7.59,5.59,6.95,11.78Z"/>
                  <g>
                    <path class="cls-16" d="m379.36,287.25s0-.03,0-.04c0,0,0,.04,0,.04Z"/>
                    <path class="cls-16" d="m377.53,279.52c-.07-.28-.02-.06,0,0h0Z"/>
                  </g>
                  <path class="cls-17" d="m413.85,280.71c-.51-.08-1.02.19-1.24.65l-1.57,3.19-.58.5c-1,.85-1.5,2.17-1.31,3.47l.33,2.23s-.02.07-.06.21c-.08.36-.29,1.19-.57,2.34h0c-.42,1.73-1.77,4.32-3.14,7.12-1.38,2.8-2.78,5.82-3.32,8.4-.1-.36-.07-.22-.1-.36-.05-.18-.1-.39-.17-.65-.21-.77-.46-1.88-.74-3.22-1.04-5.01-2.39-13.1-2.79-17.55-.22-2.47-1.51-4.62-2.97-6.7-.59-.83-1.79-1.97-2.46-2.85,0-.02-.02,0-.05-.06-.05-.05-.2-.22-.28-.3-.02-.03-.05-.06-.07-.08,0,0,0,0,0,0-.07-.13-.17-.29-.26-.49-.03-.06-.06-.11-.09-.17-.65-1.33-1.57-3.88-1.16-7.1.15-1.24.5-2.57,1.13-3.99l1.19-2.4v-.03s3.23-6.42,3.23-6.42c1.11-2.22,1.05-4.83-.17-6.99l-.75-1.22-.63-1.02-.87-1.42c-.54-.88-.98-1.81-1.33-2.78l-.96-2.72-3.71,1.65c.51,1.35.45,2.74-.09,4.17-.24.66-.75,1.21-1.37,1.55h-.02s-1.44.7-1.44.7l-.54.26c-1.5.77-2.99,1.54-4.12,2.59-1.43,1.31-2.3,3.01-1.88,5.6l1.54,5.71c.52,1.94.29,4-.66,5.77,0,0-4.67,8.49-4.03,15.64,0,.05.02.08.02.13.03.24.06.49.07.74v.02c.04.28.07.59.1.88l4.95,8.71c0-.21.02-.41.04-.62,1.64,5.54,4.36,11.97,7.24,16.86.08.14.17.29.25.43.22.39.46.77.69,1.13,3.44,5.36,5.8,9.67,10.4,13.24,8.01,6.22,12.43-16.34,12.52-22.01l.8-11.6.03-.41,1.98-9.29c.15-.67-.32-1.34-1-1.43Z"/>
                  <path class="cls-29" d="m396.77,256.44l-3.22,6.42v.03s-1.2,2.4-1.2,2.4c-.64,1.41-.98,2.75-1.13,3.99l-11.44-.99c.95-1.77,1.18-3.83.66-5.77l-1.54-5.71c-.42-2.58.45-4.29,1.88-5.6,1.13-1.05,2.62-1.83,4.12-2.59l.54-.26c-3.54,4.76.49,5.18.49,5.18,5.17-.53,8.11-4.26,9.3-6.32l.63,1.02.75,1.22c1.22,2.16,1.28,4.77.17,6.99Z"/>
                  <path class="cls-59" d="m401.37,304.59c-4.17,4.37-8.73,6.1-12.94,6.49-.12,0-.24.02-.36.03-4.88.36-9.23-1.05-11.88-2.22-.18-9.29,0-10.17-.14-18.43,0-.16,0-.02,0-.15-.08-1.86-.19-3.67-.22-5.49v-.02c-.02-.25-.05-.5-.07-.74,0-.05,0-.08-.02-.13-.64-7.15,4.03-15.64,4.03-15.64l11.11.75.33.24c-.41,3.23.51,5.78,1.16,7.1.04.06.07.11.09.17.09.2.19.36.26.49,0,0,0,0,0,0,.03.03.06.06.07.08.08.08.23.25.28.3.03.06.04.04.05.06.67.89,1.87,2.02,2.46,2.85,1.46,2.08,2.75,4.23,2.97,6.7.4,4.45,1.75,12.54,2.79,17.55Z"/>
                  <g>
                    <path class="cls-39" d="m387.58,356.21c-.75.82-1.35,1.73-1.76,2.82-.24.63-.62,1.02-1.39,1.1-1.1.11-2.46.14-3.62.24-.29-.79-.1-1.44.65-1.86.18-.11.47-.18.65-.28.78-.45,1.18-.87,1.32-1.84.08-.63.12-1.25.19-2.24,0,0,0-.02,0-.03l3.3-1.17c.19.37.49.59.65.82.6.86.77,1.61.04,2.45Z"/>
                    <path class="cls-61" d="m414.85,282.15l-1.98,9.29-.03.41c-.8-.19-2.34-.57-3.43-.9.04-.13.05-.2.05-.2l-.32-2.23c-.18-1.31.31-2.62,1.32-3.48l.58-.49,1.57-3.19c.23-.46.73-.73,1.24-.65.68.1,1.15.76,1,1.44Z"/>
                  </g>
                  <g>
                    <path class="cls-51" d="m396.52,239.59c.67-.95.94-2.45.1-2.88-.25-.13-.59-.15-.95-.1.56-3.25-.3-7.47-2.41-8.54-2.75-1.41-5.8-1-9.23,6.21-1.36,2.86-.63,6.74,1.98,8.37,1.96,1.22,5.33-.04,7.46-1.96,1.04.11,2.21.1,3.05-1.1Z"/>
                    <g>
                      <path class="cls-46" d="m386.22,237.08s-.03,0-.04-.02c-.31-.18-.72-.47-.63-.8.12-.46,1.16-.52,1.6-.53.09,0,.17.07.17.17,0,.09-.07.17-.17.17-.62,0-1.25.15-1.28.28,0,0-.01.13.47.42.08.05.11.15.06.23-.04.07-.12.1-.19.08Z"/>
                      <path class="cls-46" d="m385.78,239.1c-.18-.07-.28-.13-.29-.13-.09-.05-.12-.17-.07-.26.05-.09.16-.13.26-.07.08.05,2.11,1.14,3.46-.71.06-.09.18-.11.27-.04.09.06.1.18.04.27-1.24,1.69-2.99,1.22-3.67.95Z"/>
                      <path class="cls-46" d="m392.02,235.18c-.07-.02-.13-.08-.14-.16-.18-1.21-1.27-1.11-1.31-1.11-.11.01-.2-.07-.21-.17-.01-.11.07-.2.17-.21.51-.05,1.54.19,1.73,1.43.02.1-.06.2-.16.22-.03,0-.06,0-.08,0Z"/>
                      <path class="cls-46" d="m387.41,232.63c-.06.03-.12.02-.17-.02-.78-.67-1.42-.01-1.44.02-.06.06-.16.07-.23,0-.06-.06-.07-.16,0-.23.3-.32,1.08-.73,1.89-.04.07.06.08.16.02.23-.02.02-.03.03-.05.04Z"/>
                      <path class="cls-46" d="m390.23,235.73c-.14.42-.42.7-.62.64s-.25-.46-.1-.88c.14-.42.42-.7.62-.64s.25.46.1.88Z"/>
                      <path class="cls-46" d="m386.57,234.48c-.14.42-.42.7-.62.64-.2-.07-.25-.46-.1-.88.14-.42.42-.7.62-.64.2.07.25.46.1.88Z"/>
                    </g>
                  </g>
                  <path class="cls-18" d="m389.44,225.98c-.92-.14-2.17.6-2.66,1.32-.95,1.42.82,2.53,2.01,1.72-.6,2,1.82,3,3.2,1.69-.64,1.13,1.53,4.14,2.74,2.88.06,1.08-.02,4.24,1.83,2.5.96-.9,1.01-3.61.79-4.79-.39-2.04-1.92-4.35-3.95-4.97-.96-.29-4.45-.71-4.92.37"/>
                </g>
                <g>
                  <path class="cls-48" d="m398.03,254.25c-.68.5-1.96.92-3.24.96-20.13.83-29.19-5.79-35.15-24.29l2.72-.78c6.74,14.19,14.39,19.89,30.93,17.62,3.21-.45,5.29-.11,6.45,2.18.81,1.59-.38,3.34-1.71,4.32Z"/>
                  <path class="cls-49" d="m361.6,228.48c.25.57.51,1.12.77,1.65l-2.72.78c-.18-.55-.36-1.11-.53-1.69,0,0-.02.01-.03.01-1.16-1.76-5.12-4.65-2.58-7.04,1.03-.98,2.72.97,3.44,2.89.06.16.45,1.02.46,1.26.39-.57.38-2.84,1.52-2.32.75.35.1,3.91-.32,4.44Z"/>
                </g>
              </g>
            </g>
          </g>
        </g>
      </g>
    </g>
  </g>
</svg>